<svg xmlns="http://www.w3.org/2000/svg" xmlns:xlink="http://www.w3.org/1999/xlink" width="2000px" height="1627px" viewBox="0 0 4200 3416.355140186916">
    <g id="bdaf19a7-ae48-465a-b3b0-cf07ba8d6e23">
<g style="">
		<g id="bdaf19a7-ae48-465a-b3b0-cf07ba8d6e23-child-0">
<path style="stroke: rgb(193,193,193); stroke-opacity: 1.00; stroke-width: 0; stroke-dasharray: none; stroke-linecap: butt; stroke-dashoffset: 0; stroke-linejoin: miter; stroke-miterlimit: 4; fill: rgb(29,57,43); fill-opacity: 1.00; fill-rule: nonzero; opacity: 1;" transform="matrix(5.629982 0 0 5.63419 2100.01241 1684.880089) matrix(1 0 0 1 0 0)  translate(-373.002388, -299.049398)" d="M 335.50 596.91 C 317.50 595.76 301.17 591.21 284.96 582.83 C 262.25 571.08 242.74 551.36 230.48 527.76 L 227.50 522.01 L 114.50 521.76 L 1.50 521.50 L 1.22 508.90 C 1.00 499.11 1.25 496.04 2.33 495.14 C 3.09 494.51 11.54 490.72 21.11 486.71 L 38.50 479.43 L 38.50 301.00 L 38.50 122.58 L 36.00 121.27 C 34.62 120.55 26.30 116.93 17.50 113.22 L 1.50 106.49 L 1.50 91.49 L 1.50 76.50 L 114.55 76.25 L 227.61 75.99 L 229.89 71.25 C 234.24 62.21 245.29 46.74 252.88 39.07 C 272.00 19.72 294.85 7.55 321.50 2.50 C 329.00 1.08 337.18 0.78 370.50 0.74 C 413.97 0.67 419.97 1.20 437.14 6.58 C 468.28 16.36 495.09 38.71 510.92 68.10 L 515.02 75.71 L 543.76 76.31 C 562.85 76.70 575.69 77.44 582.00 78.51 C 636.64 87.71 682.34 117.26 713.13 163.32 C 727.23 184.41 736.61 207.23 741.76 233.00 C 744.17 245.04 744.28 247.26 744.72 293.38 C 745.22 346.44 744.59 355.63 738.94 377.67 C 721.46 445.87 663.48 502.15 595.41 516.98 C 577.41 520.90 565.65 521.96 539.77 521.98 L 515.03 522.00 L 512.39 527.25 C 500.52 550.85 478.76 572.55 455.50 583.94 C 432.44 595.25 423.06 596.90 379.86 597.30 C 361.51 597.47 341.55 597.29 335.50 596.91 Z M 415.50 548.39 C 429.55 545.77 451.73 533.16 457.34 524.60 L 459.05 522.00 L 371.52 522.00 C 320.88 522.00 284.00 522.38 284.00 522.89 C 284.00 524.62 296.13 534.99 302.77 538.93 C 309.47 542.90 313.97 544.82 323.50 547.74 C 333.31 550.74 400.33 551.22 415.50 548.39 Z M 473.40 467.75 C 476.19 455.11 476.90 449.88 477.96 434.17 C 479.28 414.70 479.28 402.22 477.95 392.32 C 473.48 358.85 449.27 332.47 416.00 324.81 C 413.52 324.24 392.38 323.43 369.00 323.01 C 331.87 322.34 325.36 321.99 317.50 320.23 C 293.25 314.80 271.20 302.44 252.92 284.04 C 236.76 267.77 224.67 244.34 219.93 220.10 C 218.80 214.29 218.84 213.59 220.44 212.42 C 222.99 210.56 232.41 209.84 249.86 210.19 L 265.22 210.50 L 269.02 221.31 C 273.44 233.87 277.43 240.89 284.77 249.02 C 294.79 260.13 308.61 268.80 323.18 273.13 C 330.01 275.16 333.44 275.35 374.00 276.03 C 420.48 276.81 423.22 277.08 440.00 282.64 C 449.51 285.79 464.26 293.59 474.28 300.78 C 483.97 307.73 498.03 322.21 504.31 331.69 C 515.73 348.93 523.14 370.33 524.99 391.39 C 525.52 397.38 526.19 402.53 526.50 402.83 C 527.20 403.53 532.78 401.58 540.66 397.88 C 555.11 391.09 568.93 377.09 576.57 361.51 C 581.85 350.75 583.82 343.48 584.67 331.75 L 585.30 323.00 L 553.05 323.00 L 520.80 323.00 L 517.65 319.72 C 515.92 317.91 511.86 313.20 508.64 309.24 C 501.56 300.55 491.36 291.33 480.25 283.59 C 475.71 280.42 472.00 277.42 472.00 276.91 C 472.00 276.35 508.04 276.09 563.25 276.24 L 654.50 276.50 L 654.78 287.13 L 655.07 297.75 L 644.78 302.04 C 639.13 304.40 633.94 306.76 633.25 307.28 C 632.27 308.03 632.00 321.89 632.00 370.58 L 632.00 432.92 L 629.75 435.04 C 622.78 441.61 596.83 454.28 588.50 455.18 L 585.50 455.50 L 585.22 440.28 L 584.95 425.06 L 582.42 427.28 C 577.91 431.24 563.21 439.71 554.60 443.32 C 549.98 445.25 541.63 447.98 536.04 449.39 C 530.45 450.80 525.52 452.18 525.07 452.46 C 524.63 452.73 523.95 456.23 523.57 460.23 C 523.20 464.23 522.63 469.19 522.32 471.25 L 521.74 475.00 L 542.38 475.00 C 576.45 475.00 597.03 470.60 619.95 458.40 C 652.11 441.29 678.87 410.33 690.31 377.00 C 697.17 357.00 698.98 340.83 698.98 299.50 C 698.98 257.27 697.43 243.24 690.38 222.00 C 677.71 183.80 645.56 149.52 607.84 133.99 C 588.36 125.97 570.70 123.00 542.45 123.00 L 522.88 123.00 L 523.52 132.75 C 523.87 138.11 524.31 143.02 524.51 143.65 C 524.76 144.46 531.55 144.94 547.18 145.26 C 564.16 145.60 571.05 146.13 576.00 147.46 C 605.04 155.28 626.74 179.47 631.03 208.79 C 631.69 213.27 632.73 217.36 633.36 217.88 C 633.99 218.39 638.55 220.48 643.50 222.52 C 648.45 224.55 653.08 226.69 653.78 227.26 C 654.71 228.01 654.99 231.10 654.78 238.40 L 654.50 248.50 L 608.50 248.50 L 562.50 248.50 L 562.22 238.40 C 562.01 231.10 562.29 228.01 563.22 227.26 C 563.92 226.69 568.55 224.56 573.50 222.53 C 578.45 220.51 583.04 218.32 583.69 217.67 C 584.62 216.77 584.48 215.30 583.08 211.20 C 580.70 204.20 576.65 199.39 569.98 195.61 L 564.50 192.50 L 545.25 192.16 L 526.00 191.82 L 526.00 204.29 C 526.00 213.07 526.37 217.05 527.25 217.74 C 527.94 218.29 532.89 220.64 538.26 222.98 C 545.43 226.10 548.16 227.79 548.55 229.36 C 548.85 230.54 548.96 235.32 548.80 240.00 L 548.50 248.50 L 502.50 248.50 L 456.50 248.50 L 456.22 238.40 C 456.01 231.11 456.29 228.01 457.22 227.24 C 457.92 226.66 462.55 224.52 467.50 222.48 C 472.45 220.45 477.06 218.32 477.75 217.77 C 478.68 217.02 479.00 211.53 478.99 196.63 C 478.99 175.38 477.35 129.06 476.48 125.25 L 475.96 122.99 L 280.73 123.25 L 85.50 123.50 L 85.24 298.00 C 85.10 393.98 85.20 473.06 85.46 473.75 C 85.84 474.74 125.44 475.00 278.87 475.00 L 471.80 475.00 L 473.40 467.75 Z M 457.10 73.40 C 451.92 66.82 440.00 58.26 430.32 54.19 C 427.47 52.98 421.39 51.10 416.82 50.01 C 409.27 48.20 405.03 48.01 371.00 48.02 C 331.16 48.03 327.17 48.40 315.00 53.21 C 306.19 56.69 296.25 63.02 289.12 69.71 L 282.50 75.91 L 370.82 75.96 L 459.15 76.00 L 457.10 73.40 Z M 217.67 451.43 C 198.54 448.46 183.10 442.60 168.21 432.68 C 143.60 416.29 122.79 387.48 115.63 359.88 C 112.06 346.13 111.00 332.20 111.00 299.05 C 111.00 258.02 113.22 241.48 121.33 222.26 C 136.35 186.65 167.98 159.19 205.00 149.63 C 219.72 145.83 247.79 144.99 360.73 145.00 L 459.96 145.00 L 460.51 147.25 C 460.82 148.49 460.94 158.95 460.78 170.50 L 460.50 191.50 L 342.50 192.02 L 224.50 192.55 L 217.31 194.76 C 201.10 199.75 191.00 205.96 179.82 217.81 C 166.93 231.47 160.68 245.78 158.85 265.80 C 158.22 272.66 157.98 290.11 158.26 308.00 C 158.68 335.02 158.98 339.40 160.86 346.38 C 165.35 363.04 175.02 378.01 187.92 388.28 C 195.51 394.32 208.79 401.45 214.57 402.58 L 217.65 403.18 L 217.54 392.61 C 217.49 386.80 217.00 381.65 216.47 381.18 C 215.94 380.71 211.45 378.62 206.50 376.54 C 201.55 374.47 196.92 372.30 196.22 371.73 C 195.29 370.98 195.01 367.81 195.22 360.10 L 195.50 349.50 L 240.71 349.24 L 285.92 348.98 L 287.09 351.17 C 288.57 353.93 287.50 369.93 285.73 371.69 C 285.05 372.36 280.23 374.68 275.00 376.85 L 265.50 380.79 L 265.22 393.40 L 264.94 406.00 L 361.39 406.00 C 414.43 406.00 458.55 406.27 459.42 406.61 C 460.72 407.10 461.00 409.03 461.00 417.30 C 461.00 429.94 459.11 450.09 457.77 451.75 C 456.22 453.67 230.10 453.37 217.67 451.43 Z" stroke-linecap="round"></path>
</g>
</g>
</g>

  </svg>