<svg xmlns="http://www.w3.org/2000/svg" xmlns:xlink="http://www.w3.org/1999/xlink" width="2000px" height="2038px" viewBox="0 0 9450 9629.183235459665">
    <g id="e8c08e70-4793-4e34-88e8-400663d26246">
<g style="">
		<g id="e8c08e70-4793-4e34-88e8-400663d26246-child-0">
<path style="stroke: rgb(193,193,193); stroke-opacity: 1.00; stroke-width: 0; stroke-dasharray: none; stroke-linecap: butt; stroke-dashoffset: 0; stroke-linejoin: miter; stroke-miterlimit: 4; fill: rgb(29,57,43); fill-opacity: 1.00; fill-rule: nonzero; opacity: 1;" transform="matrix(11.386927 0 0 11.402998 4724.999864 4822.59043) matrix(1 0 0 1 0 0)  translate(-415.997344, -412.341617)" d="M 481.00 822.89 C 467.03 821.89 461.34 820.64 453.50 816.81 C 443.75 812.05 436.09 803.11 436.02 796.40 C 436.00 794.51 435.26 794.23 428.75 793.71 C 424.76 793.39 414.75 793.09 406.50 793.03 L 391.50 792.94 L 389.00 797.71 C 387.62 800.34 383.52 805.53 379.88 809.24 C 369.07 820.27 360.41 822.99 336.00 822.98 C 302.83 822.98 283.52 818.46 276.92 809.14 C 275.57 807.24 273.39 807.06 234.50 805.58 C 190.80 803.92 175.44 802.23 178.27 799.40 C 179.20 798.46 196.31 796.13 208.50 795.27 L 219.50 794.50 L 220.03 783.50 C 220.50 773.96 220.97 771.63 223.64 765.95 C 229.48 753.48 235.83 748.51 251.11 744.42 C 256.20 743.06 260.99 741.42 261.76 740.78 C 264.83 738.23 259.69 726.18 244.97 701.42 C 226.58 670.48 223.17 659.20 224.31 633.19 C 225.53 605.47 234.83 578.65 247.12 567.41 C 248.98 565.71 253.35 562.17 256.83 559.54 C 263.12 554.79 269.00 547.93 269.00 545.35 C 269.00 544.45 267.71 544.00 265.11 544.00 C 259.28 544.00 249.04 540.49 243.61 536.63 C 225.04 523.43 225.80 499.57 245.36 481.34 C 249.39 477.58 255.93 472.70 259.89 470.50 L 267.09 466.50 L 266.49 461.00 C 266.17 457.98 265.64 453.41 265.33 450.85 L 264.77 446.19 L 257.54 450.91 C 247.46 457.49 240.72 459.51 229.00 459.46 C 217.76 459.41 212.77 457.58 205.42 450.84 C 199.74 445.61 194.41 435.16 193.43 427.28 L 192.74 421.76 L 187.19 428.13 C 161.95 457.07 134.91 470.99 103.92 471.00 C 94.62 471.00 76.92 468.16 67.03 465.09 L 60.83 463.16 L 52.13 467.54 C 41.67 472.82 34.93 474.41 25.76 473.75 C 16.72 473.10 8.74 469.12 4.55 463.17 C 1.99 459.52 1.48 457.76 1.16 451.42 C 0.83 444.96 1.13 443.26 3.40 438.61 C 8.17 428.87 16.59 424.89 33.83 424.22 L 45.15 423.78 L 49.77 416.64 C 55.31 408.06 71.41 377.08 70.70 376.37 C 70.42 376.09 68.40 376.78 66.21 377.89 C 64.02 379.01 59.31 380.39 55.74 380.96 C 40.85 383.34 27.51 376.86 21.31 364.22 C 18.71 358.94 18.50 357.62 18.54 347.00 C 18.57 336.46 18.84 334.83 21.77 327.49 C 28.69 310.11 44.17 290.60 60.85 278.23 C 85.71 259.78 117.52 251.30 148.04 254.99 C 186.77 259.66 210.17 278.26 219.12 311.50 C 220.89 318.06 221.30 322.48 221.39 336.10 L 221.50 352.70 L 228.41 346.39 C 232.58 342.59 238.69 338.38 243.79 335.79 C 251.67 331.79 252.89 331.48 261.62 331.15 C 268.13 330.91 272.33 331.27 275.40 332.31 L 279.81 333.81 L 282.48 326.16 C 283.95 321.95 287.42 314.01 290.20 308.53 C 296.98 295.14 297.78 292.60 300.00 277.50 C 301.93 264.40 303.03 260.35 309.33 243.00 C 313.81 230.65 316.32 218.14 315.79 210.77 C 315.08 200.98 317.07 201.46 278.63 201.76 C 252.49 201.97 244.17 202.35 239.92 203.55 C 235.67 204.74 216.98 205.61 153.50 207.58 C 108.95 208.95 70.57 209.89 68.21 209.66 C 65.85 209.43 62.97 208.40 61.82 207.37 C 55.89 202.10 54.13 189.08 58.25 181.02 C 62.62 172.47 54.94 173.19 149.60 172.42 C 219.12 171.86 234.38 171.98 237.60 173.10 C 240.51 174.11 248.51 174.46 269.17 174.48 C 284.38 174.49 297.04 174.27 297.30 174.00 C 298.06 173.18 292.48 151.78 290.51 148.00 C 289.51 146.07 282.76 138.65 275.50 131.50 C 263.98 120.15 262.02 117.74 260.09 112.55 C 257.41 105.34 257.18 96.17 259.55 90.52 C 262.02 84.63 265.78 79.57 275.56 69.00 C 280.39 63.78 287.66 54.41 291.70 48.20 C 304.82 28.03 309.41 24.41 326.25 20.90 C 334.12 19.26 338.81 17.63 343.75 14.82 C 356.03 7.84 365.09 3.87 372.34 2.31 C 381.97 0.23 442.94 0.35 453.16 2.47 C 459.59 3.81 468.52 7.64 480.02 14.01 C 483.96 16.19 488.78 17.64 496.87 19.06 C 515.23 22.31 519.50 25.40 531.68 44.32 C 536.35 51.58 542.16 58.52 551.93 68.50 C 568.81 85.75 570.50 88.74 570.50 101.50 C 570.50 109.62 570.22 110.99 567.59 115.50 C 565.99 118.25 559.16 126.02 552.41 132.76 C 543.70 141.45 539.43 146.54 537.70 150.26 C 535.61 154.75 529.50 177.92 530.24 178.53 C 530.38 178.65 556.60 179.26 588.50 179.90 C 649.36 181.11 673.02 182.09 699.50 184.52 C 718.95 186.29 724.86 187.72 736.50 193.43 C 760.17 205.05 775.92 229.82 775.98 255.54 C 776.03 275.31 764.19 295.92 748.39 303.58 C 743.30 306.04 741.35 306.42 734.00 306.39 C 723.01 306.35 716.46 303.43 708.82 295.17 C 699.25 284.83 693.93 272.02 686.35 241.00 C 679.59 213.37 677.44 209.60 666.68 206.55 C 653.52 202.81 608.91 200.40 540.87 199.76 C 506.76 199.44 508.41 198.77 509.43 212.50 C 510.27 223.90 511.87 230.83 517.97 249.50 C 520.67 257.75 524.06 270.94 525.51 278.81 C 528.57 295.52 529.61 298.75 535.38 309.50 C 537.75 313.90 540.96 320.88 542.52 325.00 C 544.08 329.12 545.67 332.87 546.05 333.31 C 546.42 333.76 549.02 333.38 551.82 332.46 C 555.48 331.27 559.41 330.90 565.78 331.15 C 573.26 331.45 575.57 331.97 580.55 334.52 C 590.54 339.63 596.51 349.78 597.73 363.75 C 598.03 367.19 598.55 369.99 598.89 369.97 C 599.22 369.96 601.30 367.22 603.50 363.89 C 605.70 360.57 611.65 353.86 616.72 348.98 C 623.89 342.10 627.88 339.16 634.64 335.81 C 642.81 331.76 643.93 331.48 653.09 331.16 C 661.92 330.85 663.41 331.07 668.80 333.49 C 679.72 338.39 685.91 347.62 688.09 362.23 L 689.23 369.90 L 696.14 360.96 C 704.71 349.87 716.16 339.98 726.00 335.17 C 733.26 331.62 733.86 331.50 744.54 331.50 C 754.65 331.50 756.02 331.73 760.93 334.28 C 763.87 335.80 766.35 336.93 766.44 336.78 C 766.66 336.39 767.85 333.67 780.20 305.50 C 786.25 291.69 792.32 279.27 793.77 277.74 C 797.31 274.01 800.81 273.25 812.00 273.77 C 822.61 274.27 826.95 276.07 829.52 281.05 C 832.80 287.39 832.11 289.49 808.87 343.79 C 781.99 406.61 783.61 402.72 784.76 401.50 C 785.28 400.95 789.16 395.89 793.39 390.25 C 797.62 384.61 802.22 379.25 803.62 378.33 C 806.92 376.17 814.12 376.20 817.47 378.39 C 821.19 380.83 823.99 385.88 824.00 390.17 C 824.00 398.50 804.95 430.67 792.63 443.13 C 780.07 455.83 770.41 460.41 757.50 459.78 C 749.77 459.41 745.61 458.13 739.84 454.38 C 737.27 452.71 736.98 452.73 731.34 455.21 C 718.16 461.00 706.17 461.43 695.21 456.51 C 685.12 451.99 677.07 441.30 675.41 430.24 C 675.06 427.90 674.44 425.77 674.03 425.52 C 673.62 425.27 671.63 427.47 669.61 430.41 C 665.03 437.06 655.27 446.49 647.96 451.33 C 638.84 457.38 632.02 459.39 620.50 459.45 C 611.56 459.49 609.91 459.21 604.91 456.76 C 594.60 451.69 587.34 441.90 584.76 429.58 L 583.66 424.33 L 577.70 432.23 C 574.43 436.58 568.99 442.42 565.62 445.21 C 562.26 448.00 559.39 450.56 559.25 450.89 C 558.63 452.42 555.18 479.51 555.56 479.89 C 556.21 480.54 582.90 484.81 598.00 486.68 C 617.08 489.03 653.55 489.00 669.00 486.60 C 690.53 483.27 709.62 477.35 722.73 469.95 C 730.29 465.69 736.03 465.83 740.60 470.40 C 743.54 473.34 744.00 474.46 743.99 478.65 C 743.99 484.43 742.48 486.93 735.03 493.50 C 715.97 510.33 691.73 520.55 659.00 525.57 C 637.26 528.91 595.81 527.64 561.19 522.59 C 556.62 521.92 552.75 521.63 552.58 521.94 C 551.90 523.22 554.11 539.80 555.53 544.09 C 557.49 550.00 562.50 555.83 570.55 561.57 C 574.06 564.07 578.98 568.41 581.49 571.20 C 592.15 583.05 600.50 608.87 601.65 633.50 C 602.68 655.67 597.89 671.01 581.08 699.41 C 571.61 715.42 563.36 731.97 562.36 736.97 C 561.59 740.79 564.37 742.53 574.22 744.41 C 578.42 745.22 583.33 746.64 585.12 747.56 C 591.43 750.83 598.55 758.67 602.09 766.26 C 605.22 772.98 605.46 774.23 605.48 783.74 C 605.50 791.90 605.80 794.09 607.00 794.55 C 607.83 794.87 615.47 795.51 624.00 795.98 C 640.24 796.86 649.34 798.48 648.71 800.38 C 647.86 802.98 617.57 805.67 578.13 806.64 L 550.76 807.32 L 547.08 811.04 C 539.79 818.40 530.85 821.24 509.60 822.96 C 502.51 823.53 495.76 823.94 494.60 823.86 C 493.45 823.78 487.33 823.34 481.00 822.89 Z M 311.42 809.68 C 312.74 808.71 313.43 806.35 313.96 800.91 C 314.77 792.68 316.81 787.47 320.63 783.87 L 323.16 781.50 L 322.48 791.00 C 321.85 799.92 321.95 800.71 324.15 803.91 C 332.22 815.61 339.03 812.04 339.82 795.70 C 340.18 788.25 340.50 786.95 341.87 787.21 C 343.67 787.56 345.83 791.44 349.24 800.48 C 352.01 807.79 354.64 809.22 360.37 806.50 C 368.11 802.82 368.80 795.50 363.31 775.16 L 359.62 761.50 L 359.76 716.63 C 359.84 691.95 359.68 671.98 359.42 672.25 C 359.15 672.52 357.00 680.33 354.63 689.61 L 350.33 706.48 L 349.70 654.99 C 349.36 626.67 349.47 599.30 349.97 594.16 C 350.89 584.48 350.20 574.15 347.48 557.26 C 346.67 552.18 346.00 544.19 346.00 539.51 C 346.00 531.72 346.17 531.00 347.96 531.00 C 349.46 531.00 350.29 529.78 351.46 525.82 C 353.34 519.49 353.38 516.00 351.64 509.50 C 350.42 504.94 346.44 496.00 345.62 496.00 C 345.44 496.00 343.66 498.45 341.67 501.44 C 335.99 510.00 326.97 519.98 319.12 526.40 C 314.35 530.31 312.09 532.80 312.47 533.77 C 312.89 534.87 312.49 535.10 310.88 534.68 C 309.52 534.32 306.19 535.39 301.86 537.57 C 295.81 540.62 295.00 541.36 295.00 543.85 C 295.00 548.86 298.84 561.88 303.10 571.31 C 308.55 583.39 310.08 587.83 309.02 588.49 C 307.92 589.17 304.85 584.83 302.25 578.88 C 300.25 574.32 298.41 572.26 297.30 573.37 C 296.99 573.68 297.70 577.88 298.87 582.72 C 300.91 591.09 302.67 595.30 308.07 604.68 C 309.39 606.98 310.18 609.15 309.82 609.51 C 308.84 610.49 304.96 608.11 302.20 604.83 C 300.86 603.23 299.56 602.10 299.33 602.34 C 298.24 603.43 301.71 613.35 305.87 621.00 C 310.18 628.93 313.00 634.71 313.00 635.61 C 313.00 636.43 307.77 635.95 305.93 634.96 C 303.30 633.56 303.38 634.51 307.07 648.15 C 309.82 658.34 310.23 661.70 310.99 681.00 C 311.46 692.83 312.60 709.25 313.52 717.50 C 314.63 727.41 315.03 736.74 314.70 745.00 C 313.93 764.36 311.17 769.76 299.32 775.08 C 292.06 778.34 290.96 780.05 288.88 791.36 C 287.73 797.59 287.78 798.23 289.68 800.77 C 292.85 805.02 294.28 804.21 296.21 797.05 C 297.17 793.51 298.92 789.68 300.10 788.55 L 302.24 786.50 L 301.67 789.00 C 299.32 799.26 299.77 805.77 303.06 809.06 C 305.31 811.31 308.84 811.57 311.42 809.68 Z M 498.06 808.30 C 503.04 804.11 504.19 800.26 503.48 790.17 L 502.88 781.50 L 505.44 784.50 C 509.50 789.27 511.31 793.98 511.94 801.50 C 512.27 805.35 512.89 809.06 513.33 809.75 C 514.71 811.93 519.89 811.20 522.67 808.42 C 525.11 805.98 525.22 805.43 524.70 798.17 C 524.40 793.95 523.86 789.38 523.50 788.00 L 522.85 785.50 L 524.85 787.77 C 526.84 790.02 529.33 796.02 530.45 801.25 C 531.53 806.32 535.64 804.01 536.65 797.75 C 537.41 793.08 535.36 783.82 532.69 779.90 C 531.13 777.61 528.97 776.19 525.20 774.96 C 519.09 772.99 515.70 770.16 512.65 764.50 C 510.60 760.68 510.50 759.30 510.57 733.50 C 510.65 698.28 513.50 667.95 518.57 648.17 C 520.47 640.75 521.79 634.46 521.52 634.18 C 521.24 633.90 519.86 634.20 518.46 634.84 C 511.29 638.10 511.30 634.62 518.51 622.71 C 524.13 613.45 526.59 606.99 525.56 604.29 C 525.11 603.11 524.11 603.57 520.99 606.39 C 514.72 612.06 512.85 610.63 517.52 603.75 C 521.76 597.52 526.23 585.05 526.76 578.00 C 527.30 570.77 526.35 570.77 523.64 578.00 C 522.72 580.47 520.63 584.08 519.01 586.00 C 516.37 589.12 516.05 589.27 516.03 587.33 C 516.01 586.13 518.41 579.61 521.35 572.83 C 528.80 555.66 531.31 545.86 531.41 533.50 C 531.46 528.00 531.14 522.20 530.69 520.60 L 529.89 517.70 L 527.31 521.60 C 522.73 528.52 515.61 535.00 512.58 535.00 C 512.30 535.00 513.83 532.48 515.99 529.40 C 519.51 524.36 522.76 517.28 521.85 516.61 C 520.44 515.56 473.52 509.08 472.77 509.83 C 471.39 511.21 471.47 520.99 472.90 525.27 C 473.73 527.74 475.22 529.58 477.23 530.62 L 480.29 532.20 L 479.64 540.85 C 479.28 545.61 478.04 553.55 476.89 558.50 C 474.06 570.67 473.50 591.31 474.88 632.02 C 475.97 663.93 475.46 700.64 473.90 703.16 C 472.58 705.30 472.01 703.67 470.90 694.58 C 470.31 689.78 469.00 683.53 467.99 680.68 L 466.15 675.50 L 466.03 712.50 C 465.89 756.50 465.20 766.53 461.52 778.00 C 456.39 794.00 457.16 802.96 463.97 806.48 C 470.70 809.97 473.09 808.33 477.08 797.50 C 479.63 790.55 482.56 786.00 484.47 786.00 C 485.48 786.00 485.90 788.45 486.16 795.80 C 486.67 810.52 490.56 814.61 498.06 808.30 Z M 259.25 789.31 C 259.66 789.07 260.00 785.51 260.00 781.39 C 260.00 774.09 261.82 768.00 264.01 768.00 C 265.14 768.00 265.69 770.14 266.96 779.42 C 267.94 786.68 270.49 790.79 273.32 789.71 C 275.13 789.01 278.80 779.54 280.26 771.82 C 281.72 764.04 280.49 760.00 275.98 757.79 C 271.10 755.40 250.04 752.76 244.95 753.90 C 235.70 755.98 231.67 762.37 231.57 775.16 C 231.51 781.95 231.78 783.12 233.92 785.41 C 237.20 788.90 238.00 788.68 238.01 784.25 C 238.02 780.30 241.91 770.79 244.05 769.47 C 244.99 768.89 245.14 769.30 244.64 771.09 C 241.90 780.95 243.19 787.31 248.42 789.58 C 251.14 790.76 256.96 790.62 259.25 789.31 Z M 579.55 788.55 C 581.53 786.56 582.00 785.08 582.00 780.79 C 582.00 777.87 581.57 774.00 581.05 772.18 C 580.34 769.71 580.41 768.96 581.30 769.23 C 583.46 769.89 587.00 778.27 587.00 782.71 C 587.00 787.83 588.77 788.37 592.03 784.25 C 593.94 781.84 594.16 780.58 593.78 773.93 C 593.28 765.06 590.30 758.65 585.35 755.77 C 581.59 753.58 580.06 753.51 564.37 754.82 C 552.10 755.84 546.81 757.45 545.62 760.54 C 544.24 764.15 545.19 772.87 547.78 780.42 C 550.94 789.63 553.14 791.70 556.03 788.18 C 557.98 785.81 558.45 783.85 559.53 773.75 C 560.27 766.79 562.07 766.22 564.45 772.17 C 565.72 775.33 565.96 777.86 565.46 782.56 C 564.68 789.83 565.63 790.92 572.80 790.97 C 576.05 790.99 577.69 790.40 579.55 788.55 Z M 279.99 704.34 C 278.25 698.93 275.95 691.12 274.86 687.00 C 272.58 678.28 271.26 655.85 272.80 652.00 C 273.79 649.54 273.84 649.57 275.84 654.00 C 276.95 656.47 278.40 661.65 279.06 665.50 C 280.57 674.34 283.46 682.20 286.05 684.55 C 287.82 686.14 288.24 686.19 289.52 684.90 C 293.09 681.34 293.89 661.77 290.97 649.50 C 290.31 646.75 287.40 637.08 284.49 628.00 C 278.26 608.58 277.24 603.60 276.15 587.20 C 275.18 572.66 274.34 571.07 268.59 572.97 C 263.16 574.76 255.77 581.09 251.32 587.76 C 240.72 603.63 235.93 635.79 242.14 649.41 C 243.89 653.26 244.85 652.58 245.60 646.98 C 245.96 644.22 246.57 641.76 246.95 641.53 C 247.32 641.30 248.40 645.13 249.35 650.04 C 253.00 669.10 259.50 686.55 267.09 697.67 C 270.69 702.95 282.07 715.26 282.74 714.59 C 282.97 714.37 281.73 709.75 279.99 704.34 Z M 556.57 699.87 C 564.65 688.95 571.50 671.47 575.52 651.51 C 577.57 641.37 577.83 640.72 578.87 643.32 C 579.49 644.86 580.01 647.11 580.02 648.32 C 580.02 649.52 580.45 651.17 580.97 651.98 C 581.71 653.15 582.29 652.62 583.69 649.48 C 586.60 642.99 586.08 623.35 582.66 610.51 C 579.29 597.89 574.34 587.41 569.00 581.61 C 562.56 574.63 553.39 571.01 550.20 574.20 C 549.44 574.96 549.00 578.78 549.00 584.59 C 549.00 596.43 547.20 605.66 540.61 627.65 C 533.90 650.04 532.60 656.86 532.55 670.00 C 532.50 681.60 533.68 685.34 537.22 684.81 C 540.84 684.27 542.91 679.88 546.07 666.00 C 551.00 644.32 553.68 645.06 552.73 667.83 C 552.17 681.00 550.77 687.71 545.03 704.58 C 543.36 709.48 542.00 713.92 542.00 714.46 C 542.00 715.87 552.54 705.31 556.57 699.87 Z M 387.00 658.13 C 387.00 652.13 375.83 633.75 373.18 635.39 C 371.19 636.62 371.83 639.44 375.98 647.71 C 381.87 659.50 387.00 664.34 387.00 658.13 Z M 395.54 631.62 C 396.47 626.70 393.66 617.03 387.97 605.51 C 380.79 590.97 375.49 583.00 372.99 583.00 C 369.51 583.00 369.59 585.80 373.30 593.81 C 375.26 598.04 379.61 607.75 382.97 615.40 C 389.02 629.17 392.31 635.00 394.02 635.00 C 394.51 635.00 395.19 633.48 395.54 631.62 Z M 440.78 613.73 C 444.42 609.86 452.91 594.95 454.69 589.32 C 456.22 584.45 456.24 583.81 454.81 582.39 C 453.39 580.96 453.05 581.03 451.08 583.14 C 445.48 589.15 436.00 608.54 436.00 613.98 C 436.00 616.65 438.14 616.54 440.78 613.73 Z M 284.50 533.49 C 297.64 530.72 311.06 522.29 322.91 509.36 C 329.14 502.56 338.62 489.18 341.14 483.62 L 342.44 480.73 L 351.97 481.30 C 359.96 481.78 418.99 490.65 546.00 510.44 C 575.29 515.01 593.39 516.88 615.50 517.66 C 666.55 519.44 704.93 508.38 729.92 484.68 C 735.41 479.48 735.72 478.84 733.62 477.10 C 732.54 476.21 730.61 476.82 724.87 479.89 C 699.52 493.44 660.27 500.12 619.00 497.90 C 600.12 496.88 592.43 495.95 561.00 490.88 C 476.72 477.27 387.82 464.95 362.57 463.39 C 357.58 463.08 352.93 462.65 352.22 462.44 C 351.29 462.15 351.67 460.61 353.62 456.77 C 359.42 445.36 400.06 347.42 399.79 345.52 C 399.52 343.65 398.77 343.50 389.52 343.50 L 379.54 343.50 L 376.84 349.00 C 375.35 352.02 374.10 353.93 374.06 353.23 C 374.03 352.53 372.14 349.93 369.86 347.47 C 358.69 335.34 339.79 338.63 321.79 355.82 C 317.43 359.99 311.41 367.09 308.41 371.60 C 305.41 376.11 302.35 380.29 301.62 380.90 C 300.58 381.76 289.63 386.00 288.44 386.00 C 288.31 386.00 287.99 380.04 287.74 372.75 C 287.19 356.98 286.16 353.21 280.79 347.38 C 269.86 335.53 250.88 338.62 233.56 355.08 C 223.25 364.86 217.01 373.34 210.40 386.50 C 205.96 395.35 204.57 399.36 203.28 407.00 C 199.96 426.70 205.74 442.34 218.48 448.13 C 223.47 450.40 233.71 450.57 240.64 448.51 C 256.53 443.80 274.97 423.89 280.92 405.04 C 282.88 398.83 283.43 398.00 285.60 398.00 C 286.96 398.00 289.62 397.35 291.53 396.55 C 293.44 395.75 295.00 395.19 295.00 395.31 C 295.00 395.42 294.54 397.09 293.97 399.01 C 293.40 400.93 292.49 405.97 291.94 410.21 C 289.66 427.89 295.77 442.77 307.50 448.13 C 312.39 450.36 322.74 450.58 329.34 448.60 C 331.90 447.83 333.85 447.49 333.66 447.85 C 333.48 448.21 331.85 451.72 330.04 455.64 L 326.74 462.79 L 319.12 463.48 C 300.12 465.20 280.35 470.56 266.80 477.67 C 257.96 482.31 246.37 493.00 242.97 499.67 C 239.33 506.80 239.44 517.05 243.23 522.77 C 249.93 532.90 266.68 537.25 284.50 533.49 Z M 367.38 515.88 C 368.66 509.46 367.44 496.93 365.19 493.30 C 364.78 492.64 361.31 491.78 357.48 491.39 L 350.51 490.67 L 353.88 494.51 C 357.65 498.81 363.66 510.69 364.61 515.71 C 365.38 519.86 366.56 519.93 367.38 515.88 Z M 462.99 507.25 C 462.99 507.11 461.59 507.00 459.86 507.00 L 456.72 507.00 L 457.32 512.02 C 458.21 519.57 459.10 519.89 461.13 513.39 C 462.14 510.15 462.98 507.39 462.99 507.25 Z M 413.50 500.00 C 413.16 499.45 411.67 499.03 410.19 499.07 C 407.79 499.13 407.71 499.23 409.50 500.00 C 412.28 501.19 414.24 501.19 413.50 500.00 Z M 378.00 495.50 C 378.00 494.64 377.10 494.00 375.88 494.00 C 374.10 494.00 373.96 494.25 375.00 495.50 C 375.68 496.33 376.64 497.00 377.12 497.00 C 377.61 497.00 378.00 496.33 378.00 495.50 Z M 537.46 468.95 C 538.86 464.52 540.00 460.58 540.00 460.20 C 540.00 459.81 535.60 459.50 530.23 459.50 C 521.20 459.50 519.95 459.25 513.77 456.21 C 503.40 451.10 497.74 443.39 494.38 429.76 L 492.74 423.10 L 489.02 428.85 C 480.99 441.27 465.78 454.79 457.89 456.52 C 455.06 457.15 453.00 460.02 453.00 463.36 C 453.00 464.20 464.08 466.22 488.75 469.88 C 508.41 472.79 526.30 475.54 528.50 475.97 C 530.70 476.41 533.04 476.82 533.71 476.89 C 534.38 476.95 536.05 473.42 537.46 468.95 Z M 41.21 462.01 C 44.12 460.91 49.39 458.27 52.93 456.13 C 59.10 452.41 59.49 452.31 62.69 453.64 C 71.52 457.33 86.70 460.16 100.50 460.69 C 112.52 461.15 115.75 460.93 123.30 459.12 C 143.84 454.20 162.95 441.66 178.96 422.59 C 196.16 402.10 206.44 380.70 210.63 356.64 C 212.78 344.33 212.03 321.39 209.18 311.83 C 202.01 287.81 186.82 273.78 160.50 266.87 C 152.57 264.79 149.36 264.51 133.50 264.58 C 117.35 264.64 114.49 264.92 105.72 267.27 C 82.34 273.55 60.28 287.83 45.60 306.18 C 31.11 324.29 24.74 342.70 28.49 355.62 C 32.69 370.06 48.00 376.02 62.68 368.92 C 68.77 365.96 77.06 357.53 80.34 350.94 C 84.48 342.64 83.57 336.86 78.70 340.44 C 67.36 348.77 62.41 350.07 59.41 345.51 C 56.86 341.61 57.79 329.98 61.21 323.00 C 68.75 307.62 90.77 291.34 112.00 285.47 C 123.46 282.29 142.28 281.08 151.22 282.94 C 180.52 289.03 192.33 317.73 181.93 357.54 C 171.77 396.43 150.06 425.88 123.36 437.00 C 109.82 442.63 98.31 443.98 81.86 441.87 L 73.09 440.75 L 79.46 432.59 C 92.29 416.16 102.05 398.09 115.97 365.00 C 130.45 330.59 146.89 298.66 152.54 293.97 C 153.34 293.30 154.00 291.91 154.00 290.88 C 154.00 288.41 151.04 288.43 142.86 290.96 C 130.99 294.63 120.60 302.12 111.42 313.64 C 104.29 322.60 99.87 331.34 90.51 355.00 C 78.66 384.95 64.33 413.37 52.69 430.00 L 50.24 433.50 L 37.87 433.51 C 26.53 433.52 25.02 433.75 19.71 436.22 C 14.73 438.55 13.63 439.58 11.85 443.60 C 8.32 451.58 10.80 458.64 18.33 462.06 C 24.02 464.65 34.27 464.62 41.21 462.01 Z M 445.00 460.50 C 446.90 458.47 447.04 458.00 445.71 458.00 C 442.11 458.00 432.77 453.65 429.25 450.33 C 426.32 447.56 425.20 447.04 424.01 447.90 C 419.36 451.24 410.00 455.28 404.64 456.26 L 398.50 457.38 L 418.50 460.06 C 443.80 463.47 442.24 463.44 445.00 460.50 Z M 296.29 456.95 L 300.09 455.88 L 294.90 451.22 C 291.42 448.09 288.57 444.23 286.26 439.53 L 282.82 432.50 L 283.30 444.00 C 283.57 450.33 284.13 456.33 284.54 457.35 C 285.35 459.34 288.15 459.24 296.29 456.95 Z M 383.65 454.00 C 378.42 451.39 377.10 450.20 373.96 445.26 L 371.26 441.02 L 369.04 446.26 C 367.82 449.14 366.59 452.07 366.30 452.76 C 365.94 453.63 366.82 454.00 369.14 453.97 C 370.99 453.94 374.75 454.33 377.50 454.83 C 380.25 455.32 383.62 455.77 385.00 455.83 C 387.14 455.91 386.95 455.64 383.65 454.00 Z M 771.90 447.19 C 779.13 443.68 790.05 432.72 797.62 421.39 C 804.56 411.01 814.00 393.04 814.00 390.21 C 814.00 387.79 811.52 385.59 809.62 386.32 C 808.85 386.61 804.00 392.38 798.86 399.14 C 778.97 425.25 767.19 432.98 767.66 419.61 C 767.79 416.01 773.78 401.09 794.94 351.65 C 811.89 312.04 821.81 287.67 821.41 286.62 C 821.05 285.70 819.95 284.51 818.95 283.97 C 816.80 282.82 803.04 282.69 801.29 283.80 C 800.62 284.22 798.30 288.60 796.13 293.53 C 793.96 298.47 787.14 313.98 780.97 328.00 C 774.80 342.02 769.34 354.30 768.83 355.27 C 768.05 356.77 767.47 356.22 765.16 351.79 C 763.18 348.00 761.06 345.69 757.58 343.54 C 753.32 340.91 751.82 340.55 745.07 340.53 C 738.20 340.50 736.61 340.89 729.84 344.24 C 720.45 348.88 710.31 358.08 701.67 369.81 C 698.15 374.59 694.39 379.28 693.32 380.24 C 691.15 382.17 679.97 386.31 679.15 385.49 C 678.87 385.20 678.75 380.29 678.89 374.57 C 679.23 361.14 677.28 353.74 671.78 347.49 C 661.04 335.28 641.87 338.56 623.95 355.66 C 619.44 359.97 613.19 367.10 610.06 371.50 C 605.42 378.02 603.37 380.00 598.94 382.21 C 595.95 383.69 592.39 385.04 591.02 385.21 L 588.55 385.50 L 588.43 373.50 C 588.19 349.95 581.24 340.58 563.95 340.52 C 550.42 340.48 540.36 347.10 520.50 369.11 C 516.85 373.16 514.17 375.11 510.58 376.32 C 507.87 377.24 505.47 377.81 505.24 377.58 C 505.01 377.35 506.49 372.96 508.52 367.83 C 515.55 350.07 515.38 343.40 507.81 339.69 C 504.44 338.05 503.86 338.02 501.16 339.42 C 491.42 344.46 484.75 360.66 487.89 371.63 C 489.24 376.34 487.53 383.39 482.50 393.83 C 474.31 410.83 462.96 425.00 457.53 425.00 C 448.42 425.00 453.70 401.73 470.16 369.38 C 476.65 356.62 478.58 351.98 477.73 351.13 C 477.06 350.46 473.08 350.00 467.99 350.00 C 460.68 350.00 459.04 350.31 457.17 352.06 C 453.13 355.82 441.13 381.75 435.52 398.81 C 433.54 404.85 431.43 408.82 427.83 413.31 C 421.89 420.72 415.58 425.31 412.58 424.39 C 408.49 423.14 407.76 421.82 408.25 416.54 C 408.60 412.68 412.26 404.01 423.89 379.52 C 432.25 361.94 438.95 346.64 438.79 345.52 C 438.52 343.63 437.78 343.50 427.08 343.50 L 415.66 343.50 L 399.74 379.00 C 381.06 420.66 379.70 424.38 380.24 432.26 C 380.92 442.25 386.54 447.00 397.71 447.00 C 407.30 447.00 413.90 444.04 422.50 435.87 L 429.76 428.98 L 430.94 433.67 C 433.26 442.89 439.62 448.00 448.76 448.00 C 462.62 448.00 477.77 432.35 493.52 401.75 C 499.45 390.24 499.45 390.23 503.97 389.20 C 506.46 388.63 508.60 388.26 508.72 388.38 C 508.84 388.50 507.72 391.96 506.24 396.05 C 503.85 402.68 503.55 404.93 503.52 416.50 C 503.50 428.75 503.66 429.83 506.31 435.22 C 511.61 446.02 519.86 450.57 532.80 449.84 C 542.74 449.28 552.97 444.04 562.52 434.62 C 571.31 425.94 576.41 418.18 580.62 407.07 C 583.77 398.75 583.86 398.63 588.15 397.51 C 590.54 396.88 593.58 396.01 594.90 395.57 C 596.84 394.92 597.19 395.07 596.71 396.32 C 592.90 406.23 592.39 424.36 595.68 432.63 C 598.67 440.17 602.52 444.62 608.61 447.60 C 613.49 449.98 614.87 450.21 622.42 449.81 C 633.88 449.21 641.53 445.42 652.43 434.94 C 661.60 426.13 668.00 416.29 671.30 405.88 C 673.12 400.15 673.93 398.87 676.00 398.42 C 677.38 398.12 680.27 397.23 682.43 396.45 C 684.59 395.66 686.53 395.19 686.73 395.40 C 686.94 395.61 686.37 398.64 685.46 402.14 C 683.05 411.41 683.79 427.63 686.95 434.79 C 689.76 441.18 696.64 447.56 702.39 449.11 C 712.12 451.74 726.58 448.37 735.84 441.31 C 739.12 438.81 739.30 438.78 740.31 440.60 C 745.73 450.39 759.44 453.25 771.90 447.19 Z M 110.39 431.03 C 121.48 428.19 130.95 422.83 140.13 414.20 C 150.09 404.83 157.97 393.03 164.60 377.57 C 176.70 349.35 179.30 324.69 171.77 309.50 C 169.82 305.57 163.30 298.00 161.86 298.00 C 160.31 298.00 149.48 315.66 142.96 328.79 C 139.22 336.35 131.42 353.62 125.63 367.18 C 111.61 400.01 105.25 412.52 93.58 430.25 L 91.77 433.00 L 97.23 433.00 C 100.23 433.00 106.15 432.11 110.39 431.03 Z M 471.87 393.64 C 475.27 387.39 479.42 376.09 478.62 375.28 C 477.71 374.38 466.00 399.88 466.00 402.75 C 466.00 403.79 468.29 400.23 471.87 393.64 Z M 299.12 360.14 C 298.52 357.04 297.90 353.41 297.76 352.08 C 297.62 350.75 296.88 349.45 296.12 349.20 C 295.08 348.86 294.87 349.46 295.29 351.62 C 295.59 353.21 296.38 357.82 297.06 361.88 C 298.00 367.57 298.50 368.86 299.25 367.51 C 299.89 366.37 299.85 363.84 299.12 360.14 Z M 327.87 338.50 C 331.24 336.42 334.00 334.64 334.00 334.55 C 334.00 334.45 333.05 332.40 331.88 329.99 C 329.08 324.19 325.70 307.51 326.34 302.63 C 327.23 295.77 328.56 296.56 330.71 305.22 C 331.84 309.77 334.59 317.55 336.83 322.50 L 340.90 331.50 L 350.84 331.15 C 359.25 330.87 361.52 331.14 365.52 332.91 C 368.12 334.06 370.40 335.00 370.58 335.00 C 370.76 335.00 370.23 333.09 369.41 330.75 C 367.22 324.58 366.09 319.00 367.02 319.00 C 368.14 319.00 372.65 324.50 375.27 329.05 L 377.46 332.85 L 389.65 333.17 C 400.86 333.47 402.05 333.69 404.36 335.86 L 406.87 338.23 L 410.19 335.86 C 413.28 333.66 414.40 333.50 427.15 333.50 C 439.17 333.50 441.04 333.73 442.90 335.41 C 444.06 336.46 445.15 337.14 445.32 336.91 C 445.48 336.68 447.46 333.35 449.71 329.50 C 453.57 322.91 458.47 317.14 459.41 318.08 C 460.06 318.73 454.63 334.94 452.17 339.71 C 450.98 342.03 450.00 344.10 450.00 344.32 C 450.00 344.55 452.10 343.66 454.67 342.36 C 458.53 340.41 460.87 340.00 468.20 340.00 C 473.58 340.00 478.40 340.56 480.45 341.42 C 483.50 342.69 484.00 342.66 485.42 341.09 C 487.40 338.90 487.49 337.34 485.54 338.96 C 483.77 340.44 482.00 339.51 482.00 337.10 C 482.00 336.12 484.32 330.64 487.17 324.91 C 490.01 319.19 493.29 310.99 494.46 306.70 C 495.63 302.40 497.02 298.80 497.54 298.70 C 499.01 298.40 499.31 308.74 498.04 316.00 C 497.42 319.58 495.67 325.06 494.15 328.19 L 491.40 333.87 L 495.45 331.46 C 498.89 329.42 499.60 328.40 500.17 324.78 C 500.54 322.42 501.83 317.80 503.04 314.50 C 506.84 304.13 507.02 277.16 503.31 273.45 C 501.03 271.18 499.98 271.93 494.79 279.57 C 486.84 291.27 475.08 303.42 473.37 301.70 C 473.05 301.38 475.50 294.23 478.82 285.81 C 482.14 277.39 485.60 267.60 486.51 264.05 C 488.79 255.12 488.65 243.80 486.16 236.72 C 484.48 231.93 480.58 225.00 479.57 225.00 C 479.41 225.00 479.20 228.11 479.11 231.92 C 479.01 235.73 478.28 241.35 477.48 244.42 C 475.48 252.09 464.52 270.00 461.82 270.00 C 459.29 270.00 462.02 260.86 468.35 248.15 C 474.21 236.39 475.00 234.12 474.99 229.15 C 474.97 221.31 474.20 219.00 471.63 219.01 C 469.93 219.02 468.71 220.75 465.55 227.65 C 461.87 235.71 455.33 245.95 453.85 245.98 C 453.48 245.99 453.40 244.09 453.66 241.75 L 454.13 237.50 L 450.27 241.65 C 448.14 243.93 444.68 249.66 442.58 254.38 C 438.88 262.69 437.00 264.42 437.00 259.52 C 437.00 256.41 435.99 253.89 434.99 254.51 C 434.55 254.78 429.79 262.87 424.41 272.48 C 419.03 282.10 414.41 289.74 414.14 289.47 C 413.86 289.20 412.82 285.72 411.83 281.74 C 409.27 271.52 402.86 259.02 397.36 253.51 C 392.27 248.43 383.93 243.71 380.87 244.19 C 378.99 244.49 379.02 244.67 381.45 247.94 C 382.85 249.84 384.00 252.23 384.00 253.26 C 384.00 255.03 383.80 255.01 380.11 252.94 C 375.94 250.60 366.98 238.01 361.08 226.21 C 357.38 218.81 353.73 216.32 351.30 219.54 C 350.22 220.98 349.94 223.35 350.25 228.50 C 350.63 234.74 351.39 236.91 357.28 248.50 C 363.15 260.03 366.43 270.11 364.26 269.94 C 362.48 269.81 354.50 258.95 351.29 252.30 C 348.46 246.42 347.67 243.36 347.01 235.64 C 345.80 221.49 344.92 221.00 341.15 232.36 C 335.47 249.49 335.85 260.31 342.72 277.00 C 350.55 296.02 352.98 302.36 352.59 302.74 C 351.61 303.72 346.01 299.65 340.35 293.82 C 334.74 288.07 329.71 281.00 326.05 273.75 C 324.19 270.08 323.21 270.28 321.28 274.75 C 320.17 277.30 319.51 282.51 319.22 291.00 C 318.79 303.22 318.86 303.74 322.39 314.39 C 328.87 333.93 326.49 335.31 315.87 318.17 C 313.72 314.69 311.40 312.03 310.73 312.25 C 309.06 312.80 308.24 321.49 308.11 339.87 L 308.00 355.24 L 314.87 348.76 C 318.64 345.20 324.49 340.58 327.87 338.50 Z M 81.02 330.00 C 83.69 330.00 86.16 330.45 86.50 331.00 C 87.72 332.98 89.01 331.91 91.61 326.75 C 96.21 317.62 103.01 307.82 109.36 301.15 C 115.13 295.10 115.32 294.75 112.50 295.41 C 110.85 295.79 106.63 297.44 103.13 299.06 C 84.78 307.55 70.10 321.88 67.53 333.81 L 66.81 337.13 L 71.48 333.56 C 75.36 330.61 76.98 330.00 81.02 330.00 Z M 516.41 322.16 L 515.72 312.09 L 513.11 313.46 C 511.67 314.21 509.62 316.55 508.54 318.66 C 507.46 320.77 505.78 323.69 504.79 325.15 C 502.43 328.66 502.51 329.00 505.75 329.03 C 507.26 329.04 510.30 329.88 512.50 330.88 C 514.70 331.89 516.64 332.61 516.80 332.47 C 516.97 332.34 516.80 327.70 516.41 322.16 Z M 755.71 286.55 C 779.53 260.09 767.36 218.99 730.49 201.36 C 717.77 195.27 696.28 191.17 667.86 189.39 C 657.65 188.75 657.17 188.81 656.07 190.87 C 653.82 195.07 655.87 196.26 670.99 199.50 L 685.14 202.53 L 688.91 211.51 C 702.57 244.04 718.80 263.15 737.71 268.99 C 741.28 270.10 746.88 271.00 750.14 271.00 C 754.75 271.00 756.20 271.37 756.70 272.67 C 757.57 274.93 751.86 285.74 746.66 291.66 L 742.50 296.40 L 746.88 293.95 C 749.29 292.60 753.26 289.27 755.71 286.55 Z M 418.72 226.43 C 427.32 223.60 443.76 215.12 445.90 212.39 C 448.75 208.78 448.58 208.14 444.34 206.37 C 438.68 204.00 431.42 204.37 424.27 207.38 C 416.12 210.81 410.55 210.74 399.96 207.07 L 391.50 204.15 L 383.79 205.70 L 376.08 207.26 L 377.53 210.05 C 378.32 211.59 380.21 213.72 381.73 214.79 C 388.41 219.51 407.43 227.86 411.72 227.95 C 412.93 227.98 416.08 227.29 418.72 226.43 Z M 73.47 192.88 C 74.06 182.17 73.93 179.51 72.77 178.35 C 71.94 177.51 70.62 177.21 69.55 177.62 C 67.90 178.25 67.79 179.40 68.25 190.41 C 68.79 203.09 69.39 206.00 71.48 206.00 C 72.40 206.00 72.94 202.41 73.47 192.88 Z M 86.79 189.48 C 90.64 181.67 90.79 180.00 87.67 180.00 C 85.06 180.00 81.59 183.32 80.52 186.84 C 79.58 189.95 80.77 196.00 82.33 196.00 C 83.01 196.00 85.02 193.07 86.79 189.48 Z M 99.42 188.31 C 101.98 182.97 102.56 180.89 101.68 180.18 C 98.96 177.99 93.92 182.32 92.51 188.04 C 91.80 190.94 93.52 196.33 94.99 195.83 C 95.53 195.65 97.52 192.27 99.42 188.31 Z M 643.80 194.80 C 645.46 193.14 645.30 189.50 643.50 188.00 C 641.54 186.38 610.11 185.35 537.50 184.54 L 481.50 183.92 L 479.18 187.55 C 477.90 189.55 477.00 191.31 477.18 191.47 C 477.36 191.62 506.65 192.31 542.28 192.99 C 577.91 193.68 612.56 194.57 619.28 194.97 C 638.62 196.12 642.51 196.09 643.80 194.80 Z M 390.30 191.65 C 397.57 187.34 408.15 178.00 407.80 176.19 C 407.60 175.18 404.72 173.44 400.49 171.76 C 392.54 168.62 388.38 164.61 384.46 156.31 C 377.27 141.12 380.81 129.66 394.84 122.76 C 401.04 119.71 402.13 119.50 411.98 119.50 C 425.00 119.50 430.11 121.23 436.00 127.61 C 443.79 136.07 444.85 143.04 440.03 154.32 C 435.81 164.22 432.79 167.67 425.14 171.33 C 421.48 173.08 418.36 175.24 418.19 176.16 C 417.66 179.07 432.10 191.06 439.12 193.54 C 441.39 194.34 444.88 195.00 446.88 194.99 C 455.73 194.97 466.29 186.46 473.53 173.51 C 478.20 165.15 478.13 161.31 473.11 151.84 C 466.50 139.35 465.57 131.33 471.95 141.75 C 475.73 147.93 479.11 152.22 479.72 151.62 C 479.98 151.35 479.42 147.80 478.45 143.72 C 477.38 139.16 476.99 135.19 477.44 133.40 L 478.17 130.50 L 480.34 135.00 C 481.53 137.48 482.95 139.50 483.50 139.50 C 485.18 139.50 491.78 125.91 493.69 118.50 C 496.47 107.75 495.90 88.80 492.19 68.00 C 490.57 58.92 489.38 51.35 489.55 51.16 C 489.71 50.97 492.59 53.00 495.95 55.66 C 500.25 59.08 502.85 62.12 504.77 66.00 C 507.47 71.45 507.50 71.69 507.46 91.50 C 507.43 102.50 507.25 120.95 507.05 132.50 C 506.71 152.31 506.83 154.01 509.14 162.43 C 510.49 167.34 512.08 171.53 512.67 171.72 C 514.64 172.38 520.00 166.97 520.00 164.33 C 520.00 162.96 519.02 158.16 517.83 153.67 C 514.82 142.34 515.01 129.76 518.50 110.00 C 521.33 94.01 522.19 77.89 520.72 68.50 L 519.93 63.50 L 522.93 66.72 C 524.95 68.90 526.75 72.77 528.52 78.72 C 532.08 90.72 534.47 96.60 535.57 96.00 C 536.08 95.72 536.35 94.15 536.16 92.50 L 535.82 89.50 L 538.41 91.92 L 541.00 94.35 L 541.00 91.02 C 541.00 87.75 541.04 87.72 543.01 89.51 C 549.22 95.13 543.37 82.00 534.08 69.50 C 530.82 65.10 524.55 56.33 520.17 50.00 C 507.75 32.10 503.53 29.00 491.57 29.00 C 483.60 29.00 478.02 27.18 468.68 21.53 C 454.62 13.02 452.79 12.70 416.72 12.24 C 374.57 11.70 368.44 12.88 350.34 24.98 C 342.12 30.47 342.53 30.35 332.50 30.45 C 322.73 30.54 319.13 32.58 311.32 42.43 C 303.50 52.29 281.87 83.77 281.23 86.22 C 280.49 89.07 282.28 88.22 285.25 84.30 C 288.11 80.53 288.65 81.25 287.07 86.74 C 285.75 91.35 287.27 91.56 290.42 87.22 L 293.12 83.50 L 292.43 88.39 C 291.46 95.15 293.21 93.65 295.45 85.80 C 299.19 72.63 300.27 69.80 302.52 67.19 C 305.50 63.72 306.14 64.48 304.85 70.03 C 303.36 76.47 304.45 97.86 306.83 109.05 C 307.96 114.30 309.42 123.30 310.09 129.05 C 311.20 138.65 311.13 140.35 309.15 150.00 C 307.97 155.77 307.00 161.72 307.00 163.21 C 307.00 165.95 311.32 171.00 313.66 171.00 C 314.31 171.00 315.86 166.87 317.13 161.75 C 319.23 153.31 319.43 150.31 319.40 127.50 C 319.38 113.75 319.16 95.50 318.93 86.94 L 318.50 71.38 L 321.52 65.44 C 323.76 61.04 325.84 58.63 329.52 56.15 C 334.16 53.03 334.52 52.94 334.81 54.81 C 334.98 55.91 333.93 63.94 332.48 72.66 C 328.96 93.89 328.38 105.51 330.37 114.85 C 331.94 122.23 339.10 139.20 340.89 139.80 C 341.42 139.97 343.01 138.41 344.42 136.33 L 347.00 132.54 L 346.98 136.52 C 346.95 140.35 346.12 144.99 344.59 149.75 C 343.05 154.53 346.26 151.74 351.17 144.02 C 359.26 131.31 359.85 135.41 352.14 150.73 C 347.13 160.68 346.96 164.04 351.03 172.56 C 355.92 182.81 364.67 191.40 372.99 194.12 C 377.30 195.54 385.78 194.32 390.30 191.65 Z M 111.43 187.85 C 115.39 181.21 115.49 178.42 111.75 179.53 C 107.68 180.75 104.59 184.63 104.70 188.40 C 104.91 195.87 106.74 195.72 111.43 187.85 Z M 137.42 186.58 C 139.39 183.06 141.00 179.91 141.00 179.59 C 141.00 177.78 135.47 179.38 132.92 181.92 C 129.86 184.99 129.19 188.62 131.05 192.09 C 132.46 194.73 133.23 194.07 137.42 186.58 Z M 149.99 186.64 C 152.08 183.06 153.54 179.87 153.23 179.56 C 151.90 178.23 148.10 179.18 145.65 181.45 C 142.79 184.10 142.14 188.53 144.08 192.15 C 145.39 194.60 145.28 194.70 149.99 186.64 Z M 124.55 186.92 C 127.16 182.62 127.93 180.53 127.18 179.78 C 125.78 178.38 120.29 180.59 118.96 183.07 C 117.86 185.12 117.67 191.33 118.67 192.33 C 120.03 193.70 120.94 192.86 124.55 186.92 Z M 162.45 186.95 C 166.57 179.93 166.74 179.00 163.93 179.00 C 158.58 179.00 154.09 185.47 155.98 190.45 C 156.51 191.85 157.39 193.00 157.93 193.00 C 158.46 193.00 160.50 190.28 162.45 186.95 Z M 175.29 186.54 C 177.33 182.99 179.00 179.84 179.00 179.54 C 179.00 179.24 177.65 179.00 176.00 179.00 C 170.60 179.00 166.56 185.54 168.85 190.57 C 169.46 191.91 170.32 193.00 170.77 193.00 C 171.21 193.00 173.24 190.09 175.29 186.54 Z M 188.23 185.96 C 192.16 179.23 192.02 177.46 187.63 178.56 C 182.61 179.82 179.62 186.24 181.62 191.46 C 182.64 194.10 184.27 192.74 188.23 185.96 Z M 200.45 186.65 C 202.40 183.16 204.00 179.79 204.00 179.15 C 204.00 177.13 200.26 177.91 197.08 180.59 C 194.00 183.18 193.05 187.36 194.61 191.42 C 195.65 194.13 196.79 193.21 200.45 186.65 Z M 213.25 186.39 C 215.31 182.76 217.00 179.39 217.00 178.90 C 217.00 177.25 212.30 177.97 209.71 180.01 C 208.30 181.12 206.88 183.29 206.54 184.84 C 205.90 187.71 207.33 193.01 208.73 192.99 C 209.15 192.99 211.19 190.01 213.25 186.39 Z M 225.96 186.08 C 228.18 182.27 230.00 178.89 230.00 178.58 C 230.00 178.26 228.84 178.00 227.42 178.00 C 224.00 178.00 219.00 183.04 219.00 186.49 C 219.00 188.96 220.55 193.00 221.49 193.00 C 221.72 193.00 223.73 189.88 225.96 186.08 Z M 346.00 189.83 C 346.00 188.91 344.86 186.80 343.48 185.15 C 339.98 181.00 336.71 180.80 286.00 181.73 L 243.50 182.50 L 243.18 186.40 C 243.01 188.54 243.30 190.57 243.84 190.90 C 244.37 191.23 267.58 191.50 295.40 191.50 C 342.04 191.50 346.00 191.37 346.00 189.83 Z M 404.05 154.36 C 404.60 152.91 404.83 151.50 404.56 151.23 C 403.71 150.37 398.00 153.18 398.00 154.45 C 398.00 157.97 402.71 157.90 404.05 154.36 Z M 427.00 155.50 C 427.68 154.68 428.02 154.00 427.74 154.00 C 427.47 154.00 425.61 153.32 423.62 152.49 C 420.50 151.18 420.00 151.17 420.00 152.42 C 420.00 154.21 422.70 157.00 424.45 157.00 C 425.17 157.00 426.32 156.32 427.00 155.50 Z M 431.32 133.77 C 427.99 130.03 423.69 129.00 411.47 129.00 C 404.84 129.00 398.93 129.48 397.68 130.12 C 393.79 132.13 391.00 135.29 391.00 137.71 C 391.00 140.81 393.12 141.50 396.81 139.60 C 401.27 137.29 423.00 137.65 428.49 140.12 L 432.50 141.92 L 432.82 138.87 C 433.02 136.96 432.46 135.05 431.32 133.77 Z M 265.76 514.50 C 257.17 509.63 265.08 497.83 282.12 490.10 C 289.58 486.72 298.14 484.33 309.31 482.52 C 318.27 481.07 318.13 480.77 312.70 489.86 C 308.31 497.22 296.28 508.25 288.44 512.11 C 280.65 515.94 270.24 517.04 265.76 514.50 Z M 229.07 428.37 C 226.49 425.09 226.27 416.23 228.55 407.46 C 231.55 395.91 243.14 373.00 245.99 373.00 C 246.54 373.00 247.00 374.24 247.01 375.75 C 247.03 382.66 255.46 394.04 261.75 395.64 C 263.00 395.96 264.00 396.99 264.00 397.96 C 264.00 400.10 254.37 415.58 249.48 421.29 C 241.48 430.65 233.14 433.54 229.07 428.37 Z M 244.65 411.61 C 251.71 402.24 251.83 401.72 247.87 398.12 C 246.02 396.44 244.21 395.05 243.84 395.03 C 242.57 394.97 237.00 412.17 237.00 416.17 C 237.00 421.14 237.84 420.64 244.65 411.61 Z M 318.98 429.19 C 314.37 425.45 315.35 411.44 321.23 397.00 C 325.86 385.64 332.81 374.43 339.62 367.36 C 348.69 357.94 356.11 355.60 361.69 360.42 C 364.23 362.59 364.50 363.45 364.48 369.19 C 364.47 374.57 363.83 376.87 360.30 384.22 C 348.98 407.83 339.91 421.70 331.99 427.51 C 326.62 431.45 322.44 431.99 318.98 429.19 Z M 339.29 403.25 C 346.90 390.02 355.00 373.15 355.00 370.52 C 355.00 366.60 353.03 367.48 346.52 374.32 C 336.42 384.92 325.99 406.43 326.05 416.50 L 326.08 420.50 L 330.45 415.75 C 332.86 413.14 336.83 407.51 339.29 403.25 Z M 264.90 382.58 C 260.35 379.49 258.61 375.36 259.21 369.12 C 260.04 360.56 266.78 354.35 270.83 358.41 C 274.15 361.72 273.40 384.11 269.96 384.76 C 269.16 384.92 266.88 383.93 264.90 382.58 Z M 26.00 449.54 C 26.00 448.73 26.87 447.60 27.93 447.04 C 30.30 445.77 40.00 445.65 40.00 446.89 C 40.00 448.19 32.46 451.00 28.98 451.00 C 27.03 451.00 26.00 450.49 26.00 449.54 Z M 530.06 428.56 C 525.29 423.49 526.78 409.99 533.90 393.87 C 537.86 384.89 544.86 373.03 546.20 373.01 C 546.59 373.00 547.22 374.69 547.59 376.75 C 549.02 384.64 554.09 391.48 561.21 395.11 C 564.75 396.91 564.89 397.16 563.80 399.76 C 561.50 405.22 550.02 421.75 546.01 425.38 C 539.16 431.56 533.87 432.62 530.06 428.56 Z M 620.45 428.55 C 614.39 422.48 619.56 399.48 631.26 380.51 C 636.03 372.78 637.99 371.37 638.01 375.67 C 638.03 382.66 646.43 394.03 652.75 395.64 C 655.97 396.46 655.59 398.23 650.33 407.08 C 641.50 421.92 632.19 431.00 625.80 431.00 C 624.06 431.00 621.93 430.02 620.45 428.55 Z M 633.70 414.06 C 636.34 410.80 639.32 406.60 640.32 404.73 L 642.13 401.33 L 638.57 397.77 C 636.60 395.80 634.76 394.58 634.48 395.04 C 631.18 400.37 626.19 420.00 628.12 420.00 C 628.55 420.00 631.07 417.33 633.70 414.06 Z M 712.23 430.33 C 711.53 430.05 710.29 428.53 709.48 426.96 C 703.15 414.72 720.16 374.86 737.00 362.50 C 745.11 356.55 753.43 356.81 756.04 363.09 C 758.46 368.94 756.82 375.52 749.10 390.92 C 733.46 422.13 722.08 434.29 712.23 430.33 Z M 728.95 407.36 C 734.13 399.65 746.55 375.23 747.58 370.75 C 749.06 364.33 741.05 369.85 733.55 380.41 C 725.53 391.72 718.00 409.58 718.00 417.29 L 718.00 420.37 L 721.08 417.44 C 722.78 415.82 726.32 411.29 728.95 407.36 Z M 565.90 382.73 C 556.81 376.66 557.09 363.15 566.41 358.00 C 568.96 356.59 569.24 356.64 571.06 358.86 C 572.65 360.80 573.00 362.79 573.00 369.99 C 573.00 380.29 572.22 385.00 570.52 385.00 C 569.85 385.00 567.77 383.98 565.90 382.73 Z M 656.21 382.88 C 651.90 380.10 650.00 376.22 650.00 370.20 C 650.00 361.70 657.48 354.05 661.68 358.25 C 664.99 361.56 664.39 384.15 660.97 384.74 C 660.16 384.88 658.02 384.04 656.21 382.88 Z M 738.50 262.60 C 724.07 258.02 709.88 243.71 699.74 223.50 C 695.95 215.94 693.67 209.00 694.98 209.00 C 695.42 209.00 699.61 214.74 704.27 221.75 C 719.78 245.08 733.53 255.85 749.01 256.78 C 754.41 257.10 757.57 256.79 760.26 255.67 C 764.65 253.83 765.32 255.20 761.86 258.92 C 757.29 263.82 747.32 265.39 738.50 262.60 Z M 732.86 243.17 C 723.00 234.42 711.00 220.66 712.19 219.47 C 712.77 218.89 731.60 237.44 736.84 243.77 C 739.23 246.64 740.79 249.00 740.30 249.00 C 739.82 249.00 736.47 246.38 732.86 243.17 Z M 740.04 240.75 C 736.60 236.76 729.56 229.18 724.39 223.90 C 719.23 218.62 715.00 213.98 715.00 213.60 C 715.00 212.47 723.34 218.54 729.45 224.13 C 735.08 229.28 742.24 238.53 745.40 244.75 C 746.31 246.54 746.88 248.00 746.67 248.00 C 746.46 248.00 743.48 244.74 740.04 240.75 Z M 747.15 237.68 C 744.76 234.83 737.65 226.99 731.33 220.25 C 725.01 213.51 720.16 208.00 720.54 208.00 C 722.24 208.00 731.29 215.58 738.13 222.74 C 744.67 229.58 752.90 241.43 751.85 242.49 C 751.65 242.69 749.53 240.52 747.15 237.68 Z M 752.63 232.25 C 749.98 229.09 742.58 220.92 736.19 214.09 C 724.30 201.42 724.03 200.11 735.12 209.02 C 742.91 215.27 751.00 224.71 755.04 232.25 C 756.73 235.41 757.96 238.00 757.77 238.00 C 757.59 238.00 755.27 235.41 752.63 232.25 Z M 441.06 98.57 C 437.89 94.75 442.42 79.71 448.44 74.06 C 451.51 71.18 458.86 69.97 463.53 71.57 C 469.10 73.49 477.00 81.87 477.00 85.86 C 477.00 86.39 474.26 89.12 470.91 91.91 C 465.39 96.53 464.37 97.00 459.86 97.00 C 457.12 97.00 452.80 96.47 450.25 95.83 C 447.14 95.05 445.50 95.00 445.27 95.69 C 445.08 96.25 444.36 97.50 443.66 98.45 C 442.50 100.03 442.28 100.05 441.06 98.57 Z M 461.89 84.63 C 463.56 82.62 462.14 79.84 459.63 80.20 C 457.18 80.55 456.18 83.86 458.15 85.11 C 460.01 86.29 460.58 86.22 461.89 84.63 Z M 381.00 97.62 C 381.00 94.46 378.25 93.69 373.07 95.38 C 367.45 97.22 362.31 97.45 358.57 96.03 C 355.78 94.97 347.00 87.27 347.00 85.89 C 347.00 85.42 348.37 82.80 350.04 80.08 C 357.47 68.02 374.05 67.72 380.71 79.53 C 383.96 85.29 385.61 93.36 384.18 96.50 C 382.96 99.19 381.00 99.88 381.00 97.62 Z M 365.99 84.51 C 367.65 82.51 366.54 80.00 364.00 80.00 C 361.73 80.00 360.46 82.16 361.36 84.50 C 362.10 86.42 364.40 86.43 365.99 84.51 Z M 378.02 71.80 C 375.99 68.47 375.30 64.00 376.83 64.00 C 378.60 64.00 382.00 68.77 382.00 71.26 C 382.00 75.24 380.26 75.48 378.02 71.80 Z M 442.00 71.70 C 442.00 70.38 443.49 67.94 445.50 66.00 C 449.50 62.12 449.97 63.36 446.91 69.68 C 444.65 74.36 442.00 75.44 442.00 71.70 Z" stroke-linecap="round"></path>
</g>
</g>
</g>

  </svg>