<svg xmlns="http://www.w3.org/2000/svg" xmlns:xlink="http://www.w3.org/1999/xlink" width="2000px" height="1334px" viewBox="0 0 1200 800.4890473597761">
    <g id="1e15478c-6857-4255-b6fc-ef3daf6f5c0e">
<g style="">
		<g id="1e15478c-6857-4255-b6fc-ef3daf6f5c0e-child-0">
<path style="stroke: rgb(193,193,193); stroke-opacity: 1.00; stroke-width: 0; stroke-dasharray: none; stroke-linecap: butt; stroke-dashoffset: 0; stroke-linejoin: miter; stroke-miterlimit: 4; fill: rgb(234,229,208); fill-opacity: 1.00; fill-rule: nonzero; opacity: 1;" transform="matrix(1.312911 0 0 1.313435 600.056864 402.533945) matrix(1 0 0 1 0 0)  translate(-457.043892, -299.935431)" d="M 397.99 599.12 C 389.05 596.21 385.00 591.27 385.00 583.28 C 385.00 577.21 387.89 572.40 393.28 569.50 C 397.60 567.17 397.70 566.79 394.90 562.86 C 390.28 556.37 391.79 547.93 398.30 543.96 C 402.69 541.28 413.33 541.24 417.36 543.90 C 426.20 549.72 426.26 561.59 417.48 567.01 L 413.91 569.22 L 416.29 572.30 C 420.09 577.24 421.38 577.04 420.77 571.63 L 420.25 567.00 L 428.25 567.00 C 435.04 567.00 436.07 567.21 435.07 568.42 C 434.42 569.20 432.36 573.53 430.48 578.06 C 427.08 586.23 427.07 586.29 428.94 588.89 C 429.97 590.32 432.21 592.82 433.91 594.44 C 435.61 596.05 437.00 597.74 437.00 598.19 C 437.00 598.63 433.69 599.00 429.65 599.00 C 423.76 599.00 421.98 598.63 420.63 597.14 C 418.99 595.33 418.84 595.33 414.82 597.32 C 410.35 599.53 402.01 600.42 397.99 599.12 Z M 411.24 587.16 C 412.00 586.40 411.07 584.48 408.03 580.54 C 405.68 577.49 403.41 575.00 402.99 575.00 C 401.35 575.00 398.06 578.62 397.49 581.04 C 397.07 582.82 397.56 584.44 399.10 586.41 C 401.08 588.92 401.79 589.17 405.75 588.72 C 408.18 588.45 410.65 587.75 411.24 587.16 Z M 412.25 558.19 C 413.21 557.37 414.00 556.12 414.00 555.42 C 414.00 553.37 411.05 551.00 408.50 551.00 C 406.22 551.00 403.00 553.31 403.00 554.94 C 403.00 555.37 403.92 556.90 405.04 558.32 C 407.18 561.04 408.97 561.01 412.25 558.19 Z M 153.74 595.65 C 142.00 592.34 135.00 582.95 135.00 570.50 C 135.00 560.25 139.48 552.21 147.63 547.83 C 154.33 544.23 157.80 543.67 168.49 544.47 L 177.71 545.17 L 178.86 553.25 C 179.48 557.70 179.80 561.53 179.56 561.78 C 179.31 562.02 177.85 561.34 176.31 560.26 C 167.16 553.89 155.40 554.88 150.44 562.45 C 148.36 565.63 148.16 573.52 150.07 577.46 C 152.06 581.59 157.49 585.00 162.07 585.00 C 168.18 585.00 169.00 584.32 169.00 579.25 L 169.00 574.72 L 163.00 575.27 C 156.28 575.88 156.13 575.68 158.05 568.75 L 159.09 565.00 L 171.58 565.00 C 183.84 565.00 184.05 565.04 182.98 567.04 C 182.36 568.20 181.97 573.51 182.07 579.43 C 182.17 585.13 181.92 590.33 181.51 590.98 C 178.89 595.23 162.20 598.03 153.74 595.65 Z M 213.20 595.17 C 206.19 592.66 201.06 588.37 198.00 582.42 C 194.79 576.18 194.48 564.51 197.38 559.00 C 202.14 549.96 209.88 544.96 220.25 544.22 C 244.23 542.49 258.01 569.46 242.52 587.80 C 236.09 595.42 223.07 598.69 213.20 595.17 Z M 229.70 581.95 C 235.02 578.64 236.92 569.58 233.64 563.26 C 227.27 550.98 209.00 555.92 209.00 569.92 C 209.00 581.61 220.01 588.01 229.70 581.95 Z M 491.82 596.49 C 491.47 596.14 487.88 595.69 483.84 595.48 L 476.50 595.10 L 475.09 587.04 C 474.32 582.61 473.98 578.69 474.34 578.33 C 474.70 577.97 475.84 578.45 476.88 579.39 C 479.80 582.03 488.53 585.00 493.39 585.00 C 498.43 585.00 501.04 582.89 499.35 580.17 C 498.37 578.59 496.34 577.80 486.16 575.04 C 483.78 574.40 480.21 572.39 478.24 570.58 C 475.05 567.65 474.60 566.64 474.24 561.39 C 473.72 554.09 476.28 549.66 483.01 546.18 C 486.98 544.13 488.37 543.93 495.00 544.49 C 509.73 545.74 508.42 545.27 509.19 549.60 C 509.57 551.74 509.91 555.16 509.94 557.20 L 510.00 560.89 L 504.40 557.95 C 498.26 554.72 491.67 554.06 488.53 556.36 C 485.77 558.37 487.28 560.72 492.20 562.06 C 503.32 565.10 506.73 566.55 509.67 569.48 C 516.83 576.62 514.46 589.64 505.13 594.42 C 502.09 595.98 492.76 597.43 491.82 596.49 Z M 544.72 595.96 C 538.98 594.53 535.72 592.54 531.58 587.95 C 526.51 582.35 524.88 578.02 524.88 570.27 C 524.88 555.01 536.04 544.00 551.50 544.00 C 562.40 544.00 571.00 549.21 575.60 558.61 C 578.70 564.96 579.27 572.95 577.07 579.42 C 575.32 584.54 568.55 591.84 563.42 594.13 C 558.38 596.37 549.75 597.22 544.72 595.96 Z M 558.50 582.11 C 562.16 580.06 565.00 574.74 565.00 569.90 C 565.00 562.34 556.65 555.09 549.49 556.44 C 535.67 559.03 534.22 578.81 547.50 583.49 C 551.79 585.00 553.79 584.75 558.50 582.11 Z M 611.00 596.10 C 598.24 593.38 590.70 583.59 590.83 569.94 C 590.90 562.15 592.44 557.85 597.03 552.62 C 602.90 545.93 606.90 544.50 619.75 544.50 L 631.00 544.50 L 631.57 548.00 C 631.88 549.92 632.56 553.70 633.09 556.40 C 633.61 559.09 633.90 561.43 633.73 561.60 C 633.57 561.77 630.74 560.54 627.46 558.87 C 622.71 556.45 620.62 555.93 617.14 556.31 C 608.94 557.19 603.44 563.88 604.43 571.76 C 605.43 579.70 610.45 584.17 618.36 584.16 C 623.51 584.15 626.71 582.96 630.81 579.51 L 634.00 576.82 L 633.95 579.66 C 633.93 581.22 633.37 585.36 632.70 588.86 L 631.50 595.22 L 627.50 595.46 C 625.30 595.60 621.47 595.96 619.00 596.27 C 616.53 596.59 612.92 596.51 611.00 596.10 Z M 260.00 595.12 C 260.00 594.64 260.67 593.68 261.50 593.00 C 263.76 591.12 263.71 550.46 261.44 547.22 L 259.89 545.00 L 270.06 545.00 L 280.23 545.00 L 278.62 547.46 C 277.28 549.50 277.00 553.01 277.00 567.46 L 277.00 585.00 L 283.79 585.00 C 288.59 585.00 291.72 584.42 294.47 583.02 C 296.61 581.92 298.56 581.22 298.79 581.46 C 299.17 581.83 297.82 588.88 296.35 594.25 C 295.91 595.83 294.16 596.00 277.93 596.00 C 268.07 596.00 260.00 595.61 260.00 595.12 Z M 309.00 595.12 C 309.00 594.64 309.67 593.68 310.50 593.00 C 312.76 591.12 312.71 550.46 310.44 547.22 L 308.89 545.00 L 327.81 545.00 L 346.72 545.00 L 347.86 550.67 C 349.73 559.95 349.67 560.08 345.07 557.80 C 342.77 556.67 337.99 555.62 333.57 555.28 L 326.00 554.71 L 326.00 559.86 L 326.00 565.00 L 331.31 565.00 C 334.43 565.00 337.42 564.39 338.56 563.53 C 339.63 562.72 340.84 562.05 341.25 562.03 C 341.66 562.01 342.00 565.65 342.00 570.11 C 342.00 577.47 341.84 578.14 340.25 577.41 C 339.29 576.97 335.69 576.43 332.25 576.22 L 326.00 575.83 L 326.00 583.79 C 326.00 589.65 326.40 592.08 327.50 593.00 C 330.44 595.44 328.87 596.00 319.00 596.00 C 313.50 596.00 309.00 595.61 309.00 595.12 Z M 647.60 593.90 C 649.31 592.00 649.53 589.80 649.81 571.22 C 650.10 551.67 650.01 550.51 648.03 547.83 L 645.94 545.00 L 656.50 545.00 L 667.06 545.00 L 664.97 547.83 C 662.99 550.51 662.90 551.67 663.19 571.22 C 663.47 589.80 663.69 592.00 665.40 593.90 L 667.31 596.00 L 656.50 596.00 L 645.69 596.00 L 647.60 593.90 Z M 676.00 595.46 C 676.00 595.16 676.92 593.68 678.04 592.16 C 679.17 590.64 682.77 581.99 686.06 572.95 C 694.30 550.25 694.23 550.56 691.84 547.52 L 689.85 545.00 L 700.43 545.00 C 706.24 545.00 711.00 545.17 711.00 545.38 C 711.00 547.38 727.39 590.74 729.00 593.01 L 731.14 596.00 L 721.55 596.00 L 711.96 596.00 L 712.59 593.50 C 712.93 592.12 712.93 589.88 712.59 588.50 C 711.98 586.07 711.72 586.00 703.06 586.00 L 694.16 586.00 L 693.51 588.94 C 693.16 590.56 693.36 592.81 693.97 593.94 C 695.05 595.95 694.85 596.00 685.54 596.00 C 680.29 596.00 676.00 595.76 676.00 595.46 Z M 707.42 572.75 C 704.61 563.89 703.16 560.65 702.62 562.00 C 702.29 562.83 701.14 566.09 700.06 569.25 L 698.11 575.00 L 703.12 575.00 C 707.87 575.00 708.10 574.88 707.42 572.75 Z M 740.00 595.12 C 740.00 594.64 740.67 593.68 741.50 593.00 C 743.76 591.12 743.71 550.46 741.44 547.22 L 739.89 545.00 L 750.06 545.00 L 760.23 545.00 L 758.61 547.46 C 757.28 549.50 757.00 553.01 757.00 567.46 L 757.00 585.00 L 763.79 585.00 C 768.59 585.00 771.72 584.42 774.47 583.02 C 776.61 581.92 778.56 581.22 778.79 581.46 C 779.17 581.83 777.82 588.88 776.35 594.25 C 775.91 595.83 774.16 596.00 757.93 596.00 C 748.07 596.00 740.00 595.61 740.00 595.12 Z M 281.00 520.70 C 266.21 516.40 258.53 507.76 258.60 495.48 C 258.65 487.49 262.03 480.25 269.43 472.24 C 284.80 455.65 309.54 445.64 344.93 441.72 L 356.36 440.45 L 360.18 432.11 C 363.83 424.16 363.90 423.80 361.75 424.46 C 342.70 430.34 328.26 425.46 321.05 410.71 C 315.61 399.60 315.20 387.49 319.59 367.92 L 320.17 365.35 L 313.70 367.37 L 307.24 369.40 L 305.50 374.95 C 298.04 398.73 277.60 420.22 257.46 425.47 C 227.89 433.17 210.50 409.73 218.16 372.50 C 219.53 365.84 227.53 349.09 233.73 339.90 C 240.33 330.12 251.76 317.99 259.73 312.30 C 269.03 305.66 276.01 303.05 284.50 303.03 C 293.80 303.01 298.32 304.39 303.14 308.75 C 310.85 315.71 313.21 323.51 313.11 341.76 L 313.05 354.03 L 315.77 353.40 C 317.27 353.06 320.84 351.74 323.69 350.47 C 328.27 348.44 329.55 347.13 334.62 339.33 C 342.91 326.57 356.31 313.63 367.03 308.03 C 374.76 304.00 376.26 303.58 384.24 303.18 C 392.18 302.80 393.49 303.00 398.48 305.44 C 402.18 307.26 405.03 309.61 407.23 312.67 L 410.49 317.20 L 412.57 312.66 C 416.05 305.09 416.21 305.00 426.19 305.00 C 436.30 305.00 439.00 305.96 439.00 309.55 C 439.00 311.73 401.01 403.38 389.38 429.26 C 386.97 434.62 385.00 439.40 385.00 439.87 C 385.00 440.34 388.26 440.80 392.25 440.89 C 413.82 441.41 528.88 457.31 627.52 473.41 C 663.01 479.20 675.09 480.33 702.00 480.37 C 744.45 480.43 773.12 474.93 800.84 461.41 C 807.07 458.37 812.92 456.03 813.84 456.20 C 814.75 456.38 815.63 457.46 815.80 458.61 C 816.37 462.60 797.45 477.75 782.50 485.27 C 746.79 503.22 699.00 507.33 629.27 498.47 C 616.89 496.90 606.13 495.26 553.50 486.94 C 529.14 483.09 439.57 469.35 407.50 464.55 C 398.70 463.23 387.88 461.85 383.46 461.49 L 375.41 460.83 L 370.05 469.66 C 354.61 495.10 336.13 511.79 315.28 519.12 C 307.87 521.73 287.73 522.65 281.00 520.70 Z M 309.22 497.91 C 320.29 493.55 334.26 481.53 340.70 470.82 C 345.90 462.18 345.94 461.75 341.38 462.49 C 315.21 466.73 300.95 472.24 290.84 482.00 C 287.68 485.05 284.82 488.81 284.42 490.43 C 282.15 499.60 295.07 503.49 309.22 497.91 Z M 257.46 404.01 C 263.62 401.67 274.64 388.57 283.06 373.57 C 286.17 368.03 286.27 367.58 284.58 366.57 C 273.96 360.25 268.62 354.19 267.43 347.11 C 266.15 339.46 266.01 339.29 263.48 342.23 C 259.92 346.36 253.39 358.78 249.58 368.66 C 240.23 392.86 243.87 409.18 257.46 404.01 Z M 357.49 404.00 C 361.73 402.39 370.93 393.07 376.18 385.08 C 378.86 381.00 384.92 370.01 389.64 360.67 C 396.62 346.86 398.32 342.60 398.74 337.88 C 399.60 328.47 395.83 323.00 388.51 323.00 C 372.74 323.00 346.85 362.03 345.26 388.21 C 344.67 397.87 345.77 402.09 349.32 403.81 C 352.15 405.18 354.27 405.23 357.49 404.00 Z M 294.67 350.25 C 295.62 346.51 295.68 329.14 294.75 325.82 C 293.22 320.36 287.67 321.53 282.56 328.39 C 279.69 332.24 279.72 341.80 282.63 345.72 C 284.96 348.87 290.63 353.00 292.63 353.00 C 293.36 353.00 294.28 351.76 294.67 350.25 Z M 13.64 441.89 C 7.69 440.50 4.14 437.93 1.98 433.46 C -2.99 423.19 2.11 412.91 14.00 409.24 C 18.09 407.98 22.78 407.58 32.27 407.67 L 45.04 407.80 L 47.89 403.65 C 61.26 384.20 77.39 352.13 90.96 318.00 C 96.54 303.98 102.95 289.35 105.22 285.50 C 116.98 265.49 130.77 253.42 148.75 247.39 C 156.10 244.92 162.03 244.55 162.68 246.51 C 162.86 247.07 160.99 250.22 158.53 253.51 C 148.70 266.66 133.52 296.99 117.88 334.77 C 104.69 366.64 92.85 388.38 79.23 405.81 C 75.19 410.98 72.03 415.36 72.21 415.54 C 72.38 415.72 76.57 416.40 81.51 417.06 C 117.85 421.90 148.68 407.02 170.73 374.00 C 177.11 364.44 181.06 356.56 186.71 342.13 C 207.89 287.97 197.64 248.37 160.00 238.90 C 147.53 235.76 123.75 237.97 107.50 243.77 C 87.17 251.03 65.16 268.65 57.92 283.46 C 51.96 295.66 52.83 309.91 59.64 311.62 C 62.77 312.41 69.18 309.54 74.27 305.07 C 79.88 300.14 83.88 301.51 82.36 307.83 C 79.99 317.66 69.39 330.21 59.21 335.22 C 53.48 338.04 51.59 338.47 45.05 338.43 C 39.31 338.40 36.51 337.88 33.36 336.23 C 24.91 331.82 19.00 321.63 19.00 311.48 C 19.00 300.40 26.84 281.33 36.89 268.00 C 43.86 258.75 59.13 244.32 68.50 238.15 C 83.82 228.05 100.29 221.51 118.36 218.37 C 132.30 215.95 157.22 216.91 170.49 220.39 C 203.11 228.93 221.20 248.66 226.53 281.50 C 230.19 304.01 226.39 331.40 216.41 354.50 C 201.63 388.73 171.00 420.78 141.99 432.40 C 128.21 437.91 119.23 439.33 102.11 438.70 C 86.77 438.14 78.18 436.65 63.83 432.04 C 55.17 429.27 55.15 429.26 52.33 431.18 C 46.48 435.16 34.31 440.79 29.20 441.87 C 23.11 443.17 19.10 443.17 13.64 441.89 Z M 28.10 425.87 C 29.97 425.25 32.16 424.12 32.96 423.37 C 34.22 422.20 33.60 422.00 28.76 422.00 C 22.58 422.00 18.00 423.56 18.00 425.66 C 18.00 427.33 23.38 427.44 28.10 425.87 Z M 838.15 426.89 C 832.18 425.77 825.22 421.49 822.85 417.48 L 820.89 414.14 L 815.31 418.05 C 804.04 425.94 790.55 428.76 779.45 425.53 C 771.60 423.25 764.31 416.14 760.95 407.50 C 758.98 402.41 758.62 399.68 758.62 389.50 C 758.61 381.39 759.15 375.57 760.27 371.54 C 761.17 368.27 761.79 365.45 761.63 365.30 C 761.47 365.14 759.35 365.64 756.92 366.42 C 754.49 367.20 751.35 368.08 749.94 368.39 C 747.86 368.84 747.05 370.01 745.57 374.72 C 738.04 398.74 717.69 420.20 697.46 425.47 C 667.66 433.23 649.16 407.53 658.56 371.43 C 659.38 368.29 659.92 365.59 659.76 365.43 C 659.60 365.27 656.33 366.07 652.49 367.20 L 645.50 369.27 L 643.15 376.57 C 639.43 388.15 632.88 398.33 622.60 408.54 C 606.82 424.22 590.60 430.04 575.33 425.50 C 555.89 419.73 548.48 390.15 559.58 362.64 L 561.95 356.78 L 559.72 357.43 C 558.50 357.79 556.01 358.35 554.19 358.68 C 551.10 359.24 550.45 360.14 544.51 371.97 C 532.05 396.85 516.93 415.94 505.10 421.75 C 498.53 424.97 489.53 425.40 484.40 422.72 C 478.16 419.47 473.03 411.29 473.01 404.58 C 473.00 403.16 471.13 404.47 465.75 409.69 C 461.76 413.55 456.02 418.01 453.00 419.60 C 447.96 422.25 446.63 422.49 437.00 422.49 C 427.60 422.50 426.16 422.26 423.23 420.17 C 418.16 416.55 416.58 412.65 416.67 403.93 C 416.76 394.98 416.53 395.59 439.47 344.00 C 448.15 324.48 456.15 307.71 457.24 306.75 C 458.84 305.33 461.12 305.00 469.18 305.00 C 480.14 305.00 483.00 305.91 483.00 309.39 C 483.00 310.67 475.25 328.08 465.78 348.09 C 450.90 379.52 448.56 385.12 448.53 389.35 C 448.50 393.51 448.90 394.55 451.19 396.27 C 453.56 398.06 454.23 398.15 456.94 397.02 C 464.40 393.94 474.97 380.75 477.98 370.80 C 483.13 353.73 500.21 317.03 503.92 315.04 C 504.99 314.47 510.57 314.00 516.33 314.00 C 524.48 314.00 526.91 314.32 527.34 315.43 C 527.64 316.22 523.26 326.01 517.61 337.18 C 511.63 349.02 505.76 362.30 503.54 369.00 C 496.14 391.35 498.18 402.81 508.36 396.10 C 514.98 391.74 526.97 374.13 533.85 358.70 L 537.50 350.50 L 537.23 337.31 C 536.93 322.37 538.18 317.38 544.17 309.55 C 550.80 300.90 558.08 298.57 563.31 303.41 C 568.64 308.35 568.19 316.55 561.70 333.10 C 559.24 339.37 557.33 344.61 557.45 344.75 C 557.56 344.88 560.00 344.30 562.86 343.45 C 568.40 341.80 570.24 340.20 583.91 325.07 C 597.63 309.89 610.07 303.00 623.78 303.00 C 636.12 303.00 644.00 307.89 648.32 318.21 C 650.82 324.22 652.16 335.81 651.42 345.25 C 650.95 351.32 651.08 354.00 651.83 354.00 C 652.43 354.00 655.48 353.05 658.59 351.88 C 665.42 349.33 670.82 344.64 676.29 336.54 C 681.70 328.51 692.05 317.81 699.69 312.34 C 709.09 305.61 716.40 303.00 725.73 303.02 C 738.11 303.06 744.79 307.20 749.90 318.00 C 752.28 323.04 752.53 324.79 752.84 338.75 C 753.03 347.14 753.57 354.00 754.05 354.00 C 756.39 354.00 766.37 349.56 769.00 347.35 C 770.63 345.97 774.40 341.39 777.38 337.17 C 780.35 332.95 787.02 325.41 792.19 320.41 C 804.36 308.63 813.64 303.71 824.74 303.15 C 828.80 302.94 834.10 303.33 836.52 304.01 C 842.22 305.60 848.25 310.82 851.03 316.57 L 853.24 321.14 L 859.67 306.82 C 863.20 298.94 871.07 281.02 877.15 267.00 C 883.23 252.98 889.12 240.70 890.24 239.72 C 892.01 238.19 893.50 238.04 901.39 238.60 C 910.59 239.27 914.00 240.67 914.00 243.78 C 914.00 244.59 900.67 276.35 884.38 314.37 C 868.09 352.39 854.16 385.73 853.42 388.46 C 851.09 397.03 853.64 401.03 859.79 398.45 C 864.63 396.41 876.26 384.12 887.93 368.70 C 893.60 361.19 899.12 354.78 900.19 354.44 C 902.30 353.77 906.00 356.41 906.00 358.58 C 906.00 359.28 903.33 365.17 900.06 371.68 C 880.66 410.25 857.87 430.58 838.15 426.89 Z M 595.49 404.00 C 599.77 402.38 608.81 393.11 614.48 384.52 C 619.77 376.50 624.00 368.83 624.00 367.23 C 624.00 366.77 622.28 365.62 620.17 364.69 C 612.60 361.36 606.35 353.03 605.25 344.83 C 604.96 342.70 604.37 340.73 603.93 340.46 C 601.80 339.14 590.67 359.90 585.96 373.96 C 579.03 394.63 583.46 408.58 595.49 404.00 Z M 701.03 401.98 C 707.10 397.66 715.84 386.38 723.05 373.57 C 726.17 368.03 726.27 367.58 724.58 366.57 C 713.88 360.20 708.41 353.77 707.37 346.34 C 706.51 340.18 706.19 339.59 704.53 340.97 C 701.88 343.17 694.16 357.39 690.11 367.50 C 682.94 385.42 682.49 400.36 689.00 403.74 C 692.05 405.32 697.44 404.53 701.03 401.98 Z M 800.66 402.92 C 805.61 400.53 812.04 393.72 818.39 384.16 C 823.22 376.88 837.06 349.91 839.48 343.04 C 844.03 330.17 837.32 320.49 826.18 323.83 C 810.07 328.66 787.91 365.22 786.39 389.50 C 785.83 398.40 786.88 401.62 791.02 403.72 C 794.41 405.43 795.69 405.33 800.66 402.92 Z M 632.47 351.25 C 632.85 350.29 633.40 345.45 633.70 340.50 C 634.61 325.34 631.40 319.07 625.13 323.75 C 616.10 330.48 616.53 344.40 625.95 350.75 C 629.97 353.46 631.56 353.58 632.47 351.25 Z M 734.43 351.32 C 734.79 350.39 735.34 345.55 735.66 340.57 C 736.63 325.43 733.43 319.05 727.19 323.71 C 722.15 327.47 720.53 330.69 720.53 337.00 C 720.53 343.61 722.31 346.89 727.99 350.75 C 731.94 353.44 733.56 353.58 734.43 351.32 Z M 385.54 235.95 C 380.86 235.38 379.10 234.65 377.29 232.55 C 374.18 228.94 374.41 226.20 378.25 220.97 C 381.13 217.05 381.50 215.82 381.50 210.03 C 381.50 202.30 379.13 198.13 372.96 194.98 C 366.47 191.67 359.68 192.57 353.78 197.53 C 349.83 200.86 345.11 200.81 341.92 197.42 C 339.63 194.98 339.50 194.17 339.50 182.67 C 339.51 169.14 340.58 164.70 346.83 152.50 C 349.21 147.85 352.94 142.96 357.96 137.92 C 370.41 125.40 378.92 122.63 403.17 123.17 C 417.21 123.49 417.96 123.61 420.49 125.99 C 422.97 128.32 428.00 137.08 428.00 139.06 C 428.00 139.56 420.07 149.48 410.38 161.11 C 400.69 172.75 393.32 181.92 393.99 181.50 C 394.67 181.09 404.03 173.38 414.79 164.37 C 425.55 155.37 435.19 148.00 436.21 148.00 C 439.06 148.00 447.67 152.69 449.43 155.20 C 451.99 158.87 451.68 190.60 448.99 199.30 C 441.96 222.06 412.25 239.23 385.54 235.95 Z M 517.00 236.38 C 505.46 234.52 501.34 233.31 493.36 229.47 C 486.47 226.15 482.51 223.39 477.27 218.28 C 464.41 205.74 462.00 198.82 462.00 174.37 C 462.00 158.40 462.04 158.11 464.58 155.09 C 467.15 152.03 474.75 148.00 477.94 148.00 C 478.87 148.00 488.52 155.46 499.40 164.58 C 510.28 173.70 519.32 181.01 519.49 180.83 C 519.66 180.65 512.20 171.40 502.90 160.28 C 493.61 149.16 486.00 139.58 486.00 138.99 C 486.00 136.21 491.39 127.73 494.29 125.97 C 497.12 124.24 499.37 124.01 513.54 124.00 C 531.17 124.00 537.87 125.17 546.23 129.72 C 552.93 133.37 562.76 144.08 567.13 152.51 C 573.39 164.59 574.49 169.09 574.50 182.67 C 574.50 194.17 574.37 194.98 572.08 197.42 C 568.89 200.81 564.17 200.86 560.22 197.53 C 554.32 192.57 547.53 191.67 541.04 194.98 C 534.87 198.13 532.50 202.30 532.50 210.03 C 532.50 215.82 532.87 217.05 535.75 220.97 C 537.54 223.41 539.00 226.37 539.00 227.56 C 539.00 230.65 535.45 234.76 532.24 235.37 C 527.50 236.28 519.60 236.80 517.00 236.38 Z M 441.06 143.06 C 435.81 137.81 442.29 129.34 448.47 133.39 C 451.94 135.66 452.59 138.73 450.26 141.87 C 447.75 145.25 443.76 145.76 441.06 143.06 Z M 464.07 142.37 C 461.37 138.93 461.46 137.45 464.55 134.36 C 466.53 132.38 467.71 131.95 469.80 132.46 C 475.01 133.71 476.71 139.29 473.00 143.00 C 470.21 145.79 466.56 145.53 464.07 142.37 Z M 429.45 122.55 C 426.48 119.57 426.32 116.68 429.00 114.00 C 432.93 110.07 440.00 112.91 440.00 118.43 C 440.00 120.95 435.88 125.00 433.32 125.00 C 432.54 125.00 430.80 123.90 429.45 122.55 Z M 453.22 123.44 C 450.42 121.48 450.20 116.03 452.83 113.65 C 457.02 109.86 463.00 112.87 463.00 118.77 C 463.00 121.99 460.10 125.00 457.00 125.00 C 456.14 125.00 454.44 124.30 453.22 123.44 Z M 476.45 122.55 C 473.48 119.57 473.32 116.68 476.00 114.00 C 479.93 110.07 487.00 112.91 487.00 118.43 C 487.00 120.95 482.88 125.00 480.32 125.00 C 479.54 125.00 477.80 123.90 476.45 122.55 Z M 503.35 113.08 C 493.78 112.40 492.61 111.61 488.52 103.04 C 485.93 97.62 485.80 96.87 487.17 95.27 C 488.00 94.30 495.49 85.32 503.81 75.33 C 512.13 65.33 519.40 56.87 519.97 56.52 C 520.54 56.17 521.00 55.44 521.00 54.90 C 521.00 54.36 511.60 61.82 500.10 71.46 C 488.61 81.11 478.37 89.00 477.35 88.99 C 473.91 88.97 465.36 83.27 464.05 80.13 C 463.17 77.99 462.91 71.73 463.16 58.31 C 463.50 39.54 463.51 39.49 466.70 32.74 C 474.47 16.34 492.87 3.81 513.56 0.82 C 523.66 -0.64 534.59 0.72 536.77 3.70 C 540.01 8.13 539.55 10.94 534.48 17.90 C 532.64 20.42 532.00 22.56 532.00 26.20 C 532.00 40.88 548.49 48.88 559.70 39.64 C 563.78 36.29 565.71 35.85 569.50 37.43 C 574.04 39.33 575.38 44.34 574.76 57.00 C 573.95 73.31 567.91 86.84 556.00 99.04 C 543.42 111.93 531.55 115.09 503.35 113.08 Z M 385.00 112.11 C 366.22 110.40 350.21 96.07 342.23 73.83 C 340.01 67.65 339.59 64.78 339.55 55.50 C 339.49 42.09 340.14 39.50 344.06 37.47 C 347.61 35.63 349.84 36.15 355.22 40.04 C 360.32 43.74 365.64 44.59 370.61 42.52 C 378.15 39.37 382.00 33.95 382.00 26.48 C 382.00 21.53 381.05 19.12 377.35 14.67 C 374.75 11.55 374.44 9.31 376.11 5.66 C 377.62 2.35 381.20 0.91 389.50 0.28 C 405.09 -0.90 423.19 5.85 435.84 17.56 C 449.15 29.88 452.00 37.61 452.00 61.34 C 451.99 75.63 451.77 77.87 450.03 80.71 C 448.12 83.85 439.71 89.00 436.51 89.00 C 435.66 89.00 425.46 81.08 413.86 71.41 C 402.26 61.73 393.14 54.42 393.59 55.15 C 394.04 55.88 401.51 64.92 410.19 75.23 C 418.87 85.54 426.48 94.79 427.10 95.79 C 428.01 97.25 427.65 98.75 425.20 103.55 C 423.54 106.82 421.12 110.16 419.84 110.98 C 417.19 112.65 397.86 113.28 385.00 112.11 Z M 440.65 102.17 C 436.86 97.98 439.87 92.00 445.77 92.00 C 449.08 92.00 452.00 94.92 452.00 98.22 C 452.00 103.06 443.99 105.85 440.65 102.17 Z M 463.56 101.78 C 460.39 97.26 462.99 92.00 468.40 92.00 C 472.26 92.00 475.00 94.56 475.00 98.17 C 475.00 103.65 466.70 106.26 463.56 101.78 Z" stroke-linecap="round"></path>
</g>
</g>
</g>

  </svg>